<svg width="328" height="214" viewBox="0 0 328 214" fill="none" xmlns="http://www.w3.org/2000/svg">
<g filter="url(#filter0_dddd_319_1061)">
<rect x="80" y="29" width="168" height="54" rx="16" fill="#FEFBFF"/>
</g>
<path d="M144.9 52V45.44H146.54C147.553 45.44 148.323 45.72 148.85 46.28C149.377 46.84 149.64 47.6433 149.64 48.69C149.64 49.21 149.573 49.6767 149.44 50.09C149.307 50.4967 149.11 50.8433 148.85 51.13C148.59 51.41 148.27 51.6267 147.89 51.78C147.51 51.9267 147.073 52 146.58 52H144.9ZM145.73 51.32H146.48C147.247 51.32 147.82 51.09 148.2 50.63C148.587 50.17 148.78 49.5233 148.78 48.69C148.78 47.8567 148.587 47.22 148.2 46.78C147.82 46.34 147.247 46.12 146.48 46.12H145.73V51.32ZM152.862 52.12C152.562 52.12 152.276 52.0633 152.002 51.95C151.736 51.8367 151.499 51.6733 151.292 51.46C151.086 51.24 150.919 50.9733 150.792 50.66C150.672 50.34 150.612 49.98 150.612 49.58C150.612 49.1733 150.672 48.8133 150.792 48.5C150.919 48.18 151.086 47.91 151.292 47.69C151.499 47.47 151.736 47.3033 152.002 47.19C152.276 47.0767 152.562 47.02 152.862 47.02C153.162 47.02 153.446 47.0767 153.712 47.19C153.986 47.3033 154.226 47.47 154.432 47.69C154.639 47.91 154.802 48.18 154.922 48.5C155.049 48.8133 155.112 49.1733 155.112 49.58C155.112 49.98 155.049 50.34 154.922 50.66C154.802 50.9733 154.639 51.24 154.432 51.46C154.226 51.6733 153.986 51.8367 153.712 51.95C153.446 52.0633 153.162 52.12 152.862 52.12ZM152.862 51.44C153.069 51.44 153.259 51.3967 153.432 51.31C153.606 51.2167 153.752 51.09 153.872 50.93C153.999 50.7633 154.096 50.5667 154.162 50.34C154.229 50.1133 154.262 49.86 154.262 49.58C154.262 49.3 154.229 49.0467 154.162 48.82C154.096 48.5867 153.999 48.3867 153.872 48.22C153.752 48.0533 153.606 47.9267 153.432 47.84C153.259 47.7467 153.069 47.7 152.862 47.7C152.656 47.7 152.466 47.7467 152.292 47.84C152.119 47.9267 151.969 48.0533 151.842 48.22C151.722 48.3867 151.629 48.5867 151.562 48.82C151.496 49.0467 151.462 49.3 151.462 49.58C151.462 49.86 151.496 50.1133 151.562 50.34C151.629 50.5667 151.722 50.7633 151.842 50.93C151.969 51.09 152.119 51.2167 152.292 51.31C152.466 51.3967 152.656 51.44 152.862 51.44ZM157.123 52L155.773 47.14H156.613L157.333 49.95C157.387 50.1833 157.437 50.41 157.483 50.63C157.53 50.85 157.577 51.0733 157.623 51.3H157.663C157.717 51.0733 157.77 50.85 157.823 50.63C157.877 50.4033 157.933 50.1767 157.993 49.95L158.743 47.14H159.543L160.303 49.95C160.363 50.1833 160.42 50.41 160.473 50.63C160.533 50.85 160.59 51.0733 160.643 51.3H160.683C160.737 51.0733 160.787 50.85 160.833 50.63C160.88 50.41 160.93 50.1833 160.983 49.95L161.693 47.14H162.473L161.173 52H160.173L159.473 49.39C159.413 49.1567 159.357 48.9267 159.303 48.7C159.257 48.4733 159.203 48.2367 159.143 47.99H159.103C159.05 48.2367 158.997 48.4767 158.943 48.71C158.89 48.9367 158.83 49.1667 158.763 49.4L158.083 52H157.123ZM163.531 52V47.14H164.211L164.281 47.84H164.311C164.544 47.6067 164.788 47.4133 165.041 47.26C165.301 47.1 165.601 47.02 165.941 47.02C166.454 47.02 166.828 47.18 167.061 47.5C167.301 47.82 167.421 48.2933 167.421 48.92V52H166.601V49.03C166.601 48.57 166.528 48.24 166.381 48.04C166.234 47.8333 166.001 47.73 165.681 47.73C165.428 47.73 165.204 47.7933 165.011 47.92C164.818 48.0467 164.598 48.2333 164.351 48.48V52H163.531ZM169.87 52.12C169.556 52.12 169.333 52.0267 169.2 51.84C169.066 51.6533 169 51.38 169 51.02V44.88H169.82V51.08C169.82 51.2133 169.843 51.3067 169.89 51.36C169.936 51.4133 169.99 51.44 170.05 51.44C170.076 51.44 170.1 51.44 170.12 51.44C170.146 51.44 170.183 51.4333 170.23 51.42L170.34 52.04C170.286 52.0667 170.223 52.0867 170.15 52.1C170.076 52.1133 169.983 52.12 169.87 52.12ZM173.439 52.12C173.139 52.12 172.852 52.0633 172.579 51.95C172.312 51.8367 172.075 51.6733 171.869 51.46C171.662 51.24 171.495 50.9733 171.369 50.66C171.249 50.34 171.189 49.98 171.189 49.58C171.189 49.1733 171.249 48.8133 171.369 48.5C171.495 48.18 171.662 47.91 171.869 47.69C172.075 47.47 172.312 47.3033 172.579 47.19C172.852 47.0767 173.139 47.02 173.439 47.02C173.739 47.02 174.022 47.0767 174.289 47.19C174.562 47.3033 174.802 47.47 175.009 47.69C175.215 47.91 175.379 48.18 175.499 48.5C175.625 48.8133 175.689 49.1733 175.689 49.58C175.689 49.98 175.625 50.34 175.499 50.66C175.379 50.9733 175.215 51.24 175.009 51.46C174.802 51.6733 174.562 51.8367 174.289 51.95C174.022 52.0633 173.739 52.12 173.439 52.12ZM173.439 51.44C173.645 51.44 173.835 51.3967 174.009 51.31C174.182 51.2167 174.329 51.09 174.449 50.93C174.575 50.7633 174.672 50.5667 174.739 50.34C174.805 50.1133 174.839 49.86 174.839 49.58C174.839 49.3 174.805 49.0467 174.739 48.82C174.672 48.5867 174.575 48.3867 174.449 48.22C174.329 48.0533 174.182 47.9267 174.009 47.84C173.835 47.7467 173.645 47.7 173.439 47.7C173.232 47.7 173.042 47.7467 172.869 47.84C172.695 47.9267 172.545 48.0533 172.419 48.22C172.299 48.3867 172.205 48.5867 172.139 48.82C172.072 49.0467 172.039 49.3 172.039 49.58C172.039 49.86 172.072 50.1133 172.139 50.34C172.205 50.5667 172.299 50.7633 172.419 50.93C172.545 51.09 172.695 51.2167 172.869 51.31C173.042 51.3967 173.232 51.44 173.439 51.44ZM177.952 52.12C177.545 52.12 177.205 52 176.932 51.76C176.665 51.52 176.532 51.18 176.532 50.74C176.532 50.2067 176.768 49.8 177.242 49.52C177.715 49.2333 178.472 49.0333 179.512 48.92C179.512 48.7667 179.495 48.6167 179.462 48.47C179.435 48.3233 179.385 48.1933 179.312 48.08C179.238 47.9667 179.135 47.8767 179.002 47.81C178.875 47.7367 178.712 47.7 178.512 47.7C178.232 47.7 177.968 47.7533 177.722 47.86C177.475 47.9667 177.255 48.0867 177.062 48.22L176.742 47.65C176.968 47.5033 177.245 47.3633 177.572 47.23C177.898 47.09 178.258 47.02 178.652 47.02C179.245 47.02 179.675 47.2033 179.942 47.57C180.208 47.93 180.342 48.4133 180.342 49.02V52H179.662L179.592 51.42H179.562C179.328 51.6133 179.078 51.78 178.812 51.92C178.545 52.0533 178.258 52.12 177.952 52.12ZM178.192 51.46C178.425 51.46 178.645 51.4067 178.852 51.3C179.058 51.1867 179.278 51.0233 179.512 50.81V49.46C179.105 49.5133 178.762 49.5767 178.482 49.65C178.208 49.7233 177.985 49.81 177.812 49.91C177.645 50.01 177.522 50.1267 177.442 50.26C177.368 50.3867 177.332 50.5267 177.332 50.68C177.332 50.96 177.415 51.16 177.582 51.28C177.748 51.4 177.952 51.46 178.192 51.46ZM183.531 52.12C182.917 52.12 182.427 51.9 182.061 51.46C181.701 51.02 181.521 50.3933 181.521 49.58C181.521 49.1867 181.577 48.8333 181.691 48.52C181.811 48.2 181.967 47.93 182.161 47.71C182.354 47.49 182.577 47.32 182.831 47.2C183.084 47.08 183.351 47.02 183.631 47.02C183.911 47.02 184.154 47.07 184.361 47.17C184.567 47.27 184.777 47.4067 184.991 47.58L184.951 46.75V44.88H185.781V52H185.101L185.031 51.43H185.001C184.807 51.6167 184.584 51.78 184.331 51.92C184.084 52.0533 183.817 52.12 183.531 52.12ZM183.711 51.43C183.937 51.43 184.151 51.3767 184.351 51.27C184.551 51.1567 184.751 50.9867 184.951 50.76V48.22C184.744 48.0333 184.544 47.9033 184.351 47.83C184.164 47.75 183.971 47.71 183.771 47.71C183.577 47.71 183.394 47.7567 183.221 47.85C183.054 47.9367 182.907 48.0633 182.781 48.23C182.654 48.39 182.554 48.5833 182.481 48.81C182.407 49.0367 182.371 49.29 182.371 49.57C182.371 50.1567 182.487 50.6133 182.721 50.94C182.954 51.2667 183.284 51.43 183.711 51.43ZM190.47 52L188.72 47.14H189.57L190.49 49.9C190.563 50.14 190.636 50.38 190.71 50.62C190.79 50.86 190.866 51.0967 190.94 51.33H190.98C191.053 51.0967 191.126 50.86 191.2 50.62C191.273 50.38 191.346 50.14 191.42 49.9L192.34 47.14H193.15L191.43 52H190.47ZM194.088 52V47.14H194.908V52H194.088ZM194.508 46.14C194.348 46.14 194.211 46.09 194.098 45.99C193.991 45.89 193.938 45.7633 193.938 45.61C193.938 45.45 193.991 45.3233 194.098 45.23C194.211 45.13 194.348 45.08 194.508 45.08C194.668 45.08 194.801 45.13 194.908 45.23C195.021 45.3233 195.078 45.45 195.078 45.61C195.078 45.7633 195.021 45.89 194.908 45.99C194.801 46.09 194.668 46.14 194.508 46.14ZM197.669 52.12C197.262 52.12 196.922 52 196.649 51.76C196.382 51.52 196.249 51.18 196.249 50.74C196.249 50.2067 196.485 49.8 196.959 49.52C197.432 49.2333 198.189 49.0333 199.229 48.92C199.229 48.7667 199.212 48.6167 199.179 48.47C199.152 48.3233 199.102 48.1933 199.029 48.08C198.955 47.9667 198.852 47.8767 198.719 47.81C198.592 47.7367 198.429 47.7 198.229 47.7C197.949 47.7 197.685 47.7533 197.439 47.86C197.192 47.9667 196.972 48.0867 196.779 48.22L196.459 47.65C196.685 47.5033 196.962 47.3633 197.289 47.23C197.615 47.09 197.975 47.02 198.369 47.02C198.962 47.02 199.392 47.2033 199.659 47.57C199.925 47.93 200.059 48.4133 200.059 49.02V52H199.379L199.309 51.42H199.279C199.045 51.6133 198.795 51.78 198.529 51.92C198.262 52.0533 197.975 52.12 197.669 52.12ZM197.909 51.46C198.142 51.46 198.362 51.4067 198.569 51.3C198.775 51.1867 198.995 51.0233 199.229 50.81V49.46C198.822 49.5133 198.479 49.5767 198.199 49.65C197.925 49.7233 197.702 49.81 197.529 49.91C197.362 50.01 197.239 50.1267 197.159 50.26C197.085 50.3867 197.049 50.5267 197.049 50.68C197.049 50.96 197.132 51.16 197.299 51.28C197.465 51.4 197.669 51.46 197.909 51.46Z" fill="#232224"/>
<path d="M146.99 61.71L146.782 62.49H148.589L148.394 61.71C148.273 61.2853 148.156 60.8347 148.043 60.358C147.93 59.8813 147.818 59.422 147.705 58.98H147.653C147.549 59.4307 147.441 59.8943 147.328 60.371C147.224 60.839 147.111 61.2853 146.99 61.71ZM143.922 66L146.574 57.524H148.875L151.527 66H149.499L148.979 63.985H146.392L145.872 66H143.922ZM152.297 68.392V59.552H153.857L153.987 60.189H154.039C154.29 59.9637 154.572 59.7773 154.884 59.63C155.205 59.474 155.534 59.396 155.872 59.396C156.262 59.396 156.613 59.474 156.925 59.63C157.237 59.786 157.501 60.007 157.718 60.293C157.935 60.579 158.099 60.9257 158.212 61.333C158.333 61.7317 158.394 62.178 158.394 62.672C158.394 63.2267 158.316 63.7207 158.16 64.154C158.013 64.5787 157.809 64.9427 157.549 65.246C157.298 65.5407 157.007 65.766 156.678 65.922C156.357 66.078 156.024 66.156 155.677 66.156C155.4 66.156 155.131 66.0997 154.871 65.987C154.611 65.8657 154.368 65.6967 154.143 65.48L154.208 66.507V68.392H152.297ZM155.235 64.596C155.564 64.596 155.846 64.4487 156.08 64.154C156.314 63.8507 156.431 63.3653 156.431 62.698C156.431 61.5367 156.058 60.956 155.313 60.956C154.94 60.956 154.572 61.151 154.208 61.541V64.18C154.381 64.336 154.555 64.4443 154.728 64.505C154.901 64.5657 155.07 64.596 155.235 64.596ZM159.749 68.392V59.552H161.309L161.439 60.189H161.491C161.743 59.9637 162.024 59.7773 162.336 59.63C162.657 59.474 162.986 59.396 163.324 59.396C163.714 59.396 164.065 59.474 164.377 59.63C164.689 59.786 164.954 60.007 165.17 60.293C165.387 60.579 165.552 60.9257 165.664 61.333C165.786 61.7317 165.846 62.178 165.846 62.672C165.846 63.2267 165.768 63.7207 165.612 64.154C165.465 64.5787 165.261 64.9427 165.001 65.246C164.75 65.5407 164.46 65.766 164.13 65.922C163.81 66.078 163.476 66.156 163.129 66.156C162.852 66.156 162.583 66.0997 162.323 65.987C162.063 65.8657 161.821 65.6967 161.595 65.48L161.66 66.507V68.392H159.749ZM162.687 64.596C163.017 64.596 163.298 64.4487 163.532 64.154C163.766 63.8507 163.883 63.3653 163.883 62.698C163.883 61.5367 163.511 60.956 162.765 60.956C162.393 60.956 162.024 61.151 161.66 61.541V64.18C161.834 64.336 162.007 64.4443 162.18 64.505C162.354 64.5657 162.523 64.596 162.687 64.596ZM168.956 66.156C168.627 66.156 168.35 66.104 168.124 66C167.899 65.896 167.717 65.753 167.578 65.571C167.448 65.3803 167.353 65.155 167.292 64.895C167.232 64.6263 167.201 64.3273 167.201 63.998V56.887H169.112V64.076C169.112 64.2753 169.147 64.414 169.216 64.492C169.294 64.57 169.372 64.609 169.45 64.609C169.494 64.609 169.528 64.609 169.554 64.609C169.589 64.609 169.632 64.6003 169.684 64.583L169.918 66C169.814 66.0433 169.68 66.078 169.515 66.104C169.359 66.1387 169.173 66.156 168.956 66.156ZM173.807 66.156C173.348 66.156 172.919 66.0823 172.52 65.935C172.122 65.779 171.775 65.558 171.48 65.272C171.186 64.9773 170.956 64.622 170.791 64.206C170.627 63.79 170.544 63.3133 170.544 62.776C170.544 62.256 170.631 61.788 170.804 61.372C170.978 60.9473 171.203 60.592 171.48 60.306C171.766 60.0113 172.091 59.786 172.455 59.63C172.819 59.474 173.196 59.396 173.586 59.396C174.046 59.396 174.444 59.474 174.782 59.63C175.129 59.786 175.415 60.0027 175.64 60.28C175.874 60.5573 176.048 60.8867 176.16 61.268C176.273 61.6407 176.329 62.048 176.329 62.49C176.329 62.6633 176.321 62.828 176.303 62.984C176.286 63.14 176.269 63.257 176.251 63.335H172.39C172.477 63.803 172.668 64.1497 172.962 64.375C173.266 64.5917 173.634 64.7 174.067 64.7C174.527 64.7 174.99 64.557 175.458 64.271L176.095 65.428C175.766 65.6533 175.398 65.831 174.99 65.961C174.592 66.091 174.197 66.156 173.807 66.156ZM172.377 62.074H174.704C174.704 61.71 174.622 61.4153 174.457 61.19C174.293 60.9647 174.015 60.852 173.625 60.852C173.322 60.852 173.053 60.9517 172.819 61.151C172.594 61.3503 172.447 61.658 172.377 62.074ZM182.995 66.156C182.441 66.156 181.886 66.0563 181.331 65.857C180.785 65.649 180.296 65.3413 179.862 64.934L180.954 63.621C181.258 63.881 181.591 64.0933 181.955 64.258C182.328 64.4227 182.692 64.505 183.047 64.505C183.446 64.505 183.741 64.4313 183.931 64.284C184.131 64.1367 184.23 63.9373 184.23 63.686C184.23 63.556 184.2 63.4433 184.139 63.348C184.087 63.2527 184.005 63.1703 183.892 63.101C183.788 63.023 183.658 62.9537 183.502 62.893C183.355 62.8237 183.19 62.75 183.008 62.672L181.903 62.204C181.687 62.1173 181.474 62.0047 181.266 61.866C181.067 61.7273 180.885 61.567 180.72 61.385C180.564 61.1943 180.439 60.9777 180.343 60.735C180.248 60.4837 180.2 60.202 180.2 59.89C180.2 59.5433 180.274 59.2183 180.421 58.915C180.569 58.603 180.777 58.3343 181.045 58.109C181.314 57.875 181.63 57.693 181.994 57.563C182.367 57.433 182.774 57.368 183.216 57.368C183.71 57.368 184.196 57.4633 184.672 57.654C185.158 57.8447 185.582 58.122 185.946 58.486L184.971 59.695C184.694 59.4783 184.417 59.3137 184.139 59.201C183.862 59.0797 183.554 59.019 183.216 59.019C182.887 59.019 182.623 59.0883 182.423 59.227C182.233 59.357 182.137 59.5433 182.137 59.786C182.137 59.916 182.168 60.0287 182.228 60.124C182.298 60.2107 182.389 60.293 182.501 60.371C182.623 60.4403 182.761 60.5097 182.917 60.579C183.073 60.6397 183.242 60.709 183.424 60.787L184.516 61.229C185.036 61.437 185.444 61.723 185.738 62.087C186.042 62.451 186.193 62.932 186.193 63.53C186.193 63.8853 186.12 64.2233 185.972 64.544C185.834 64.856 185.626 65.1333 185.348 65.376C185.08 65.61 184.746 65.8007 184.347 65.948C183.949 66.0867 183.498 66.156 182.995 66.156ZM189.591 66.156C189.192 66.156 188.85 66.0953 188.564 65.974C188.286 65.8527 188.057 65.6837 187.875 65.467C187.701 65.2503 187.571 64.9903 187.485 64.687C187.407 64.375 187.368 64.0327 187.368 63.66V61.047H186.484V59.63L187.472 59.552L187.693 57.836H189.279V59.552H190.826V61.047H189.279V63.634C189.279 63.998 189.352 64.2623 189.5 64.427C189.656 64.583 189.859 64.661 190.111 64.661C190.215 64.661 190.319 64.648 190.423 64.622C190.535 64.596 190.635 64.5657 190.722 64.531L191.021 65.922C190.847 65.974 190.644 66.026 190.41 66.078C190.176 66.13 189.903 66.156 189.591 66.156ZM194.625 66.156C194.217 66.156 193.823 66.0823 193.442 65.935C193.06 65.779 192.722 65.558 192.428 65.272C192.142 64.986 191.912 64.635 191.739 64.219C191.565 63.7943 191.479 63.3133 191.479 62.776C191.479 62.2387 191.565 61.762 191.739 61.346C191.912 60.9213 192.142 60.566 192.428 60.28C192.722 59.994 193.06 59.7773 193.442 59.63C193.823 59.474 194.217 59.396 194.625 59.396C195.032 59.396 195.422 59.474 195.795 59.63C196.176 59.7773 196.51 59.994 196.796 60.28C197.09 60.566 197.324 60.9213 197.498 61.346C197.671 61.762 197.758 62.2387 197.758 62.776C197.758 63.3133 197.671 63.7943 197.498 64.219C197.324 64.635 197.09 64.986 196.796 65.272C196.51 65.558 196.176 65.779 195.795 65.935C195.422 66.0823 195.032 66.156 194.625 66.156ZM194.625 64.609C195.015 64.609 195.309 64.4443 195.509 64.115C195.708 63.7857 195.808 63.3393 195.808 62.776C195.808 62.2127 195.708 61.7663 195.509 61.437C195.309 61.1077 195.015 60.943 194.625 60.943C194.226 60.943 193.927 61.1077 193.728 61.437C193.537 61.7663 193.442 62.2127 193.442 62.776C193.442 63.3393 193.537 63.7857 193.728 64.115C193.927 64.4443 194.226 64.609 194.625 64.609ZM199.067 66V59.552H200.627L200.757 60.683H200.809C201.043 60.241 201.324 59.916 201.654 59.708C201.983 59.5 202.312 59.396 202.642 59.396C202.824 59.396 202.971 59.409 203.084 59.435C203.205 59.4523 203.313 59.4827 203.409 59.526L203.097 61.177C202.975 61.1423 202.863 61.1163 202.759 61.099C202.655 61.0817 202.533 61.073 202.395 61.073C202.152 61.073 201.896 61.1597 201.628 61.333C201.368 61.5063 201.151 61.814 200.978 62.256V66H199.067ZM207.005 66.156C206.546 66.156 206.117 66.0823 205.718 65.935C205.32 65.779 204.973 65.558 204.678 65.272C204.384 64.9773 204.154 64.622 203.989 64.206C203.825 63.79 203.742 63.3133 203.742 62.776C203.742 62.256 203.829 61.788 204.002 61.372C204.176 60.9473 204.401 60.592 204.678 60.306C204.964 60.0113 205.289 59.786 205.653 59.63C206.017 59.474 206.394 59.396 206.784 59.396C207.244 59.396 207.642 59.474 207.98 59.63C208.327 59.786 208.613 60.0027 208.838 60.28C209.072 60.5573 209.246 60.8867 209.358 61.268C209.471 61.6407 209.527 62.048 209.527 62.49C209.527 62.6633 209.519 62.828 209.501 62.984C209.484 63.14 209.467 63.257 209.449 63.335H205.588C205.675 63.803 205.866 64.1497 206.16 64.375C206.464 64.5917 206.832 64.7 207.265 64.7C207.725 64.7 208.188 64.557 208.656 64.271L209.293 65.428C208.964 65.6533 208.596 65.831 208.188 65.961C207.79 66.091 207.395 66.156 207.005 66.156ZM205.575 62.074H207.902C207.902 61.71 207.82 61.4153 207.655 61.19C207.491 60.9647 207.213 60.852 206.823 60.852C206.52 60.852 206.251 60.9517 206.017 61.151C205.792 61.3503 205.645 61.658 205.575 62.074Z" fill="#232224"/>
<path d="M117.01 56.8722C116.839 53.858 118.949 50.7813 122.051 50.7813C122.765 50.7813 123.089 50.9505 123.868 51.1971C124.284 51.3291 124.99 51.696 125.398 51.696C125.807 51.696 126.296 51.4257 126.957 51.1789C127.895 50.8287 128.449 50.7913 128.991 50.7813C130.807 50.7813 132.141 51.5548 132.991 52.7562C131.588 53.6864 130.848 54.8142 130.807 56.6436C130.807 58.3066 131.848 59.9281 133.522 60.6557C133.114 62.4019 130.909 65.9983 129.093 65.9983C128.469 65.9619 128.086 65.8628 127.358 65.5825C126.815 65.3404 126.092 65.1667 125.623 65.1667C125.133 65.146 124.584 65.3077 123.898 65.5825C123.317 65.8156 122.97 65.9479 122.174 65.9983C120.663 66.0937 117.312 62.2148 117.01 56.8722Z" fill="url(#paint0_linear_319_1061)"/>
<path d="M126.378 47.5383C125.536 48.4625 125.215 49.6795 125.276 50.7813C126.664 50.6774 127.623 50.0953 128.501 49.0143C129.378 47.9333 129.385 47.1478 129.378 46C128.357 46.1693 127.174 46.6652 126.378 47.5383Z" fill="url(#paint1_linear_319_1061)"/>
<defs>
<filter id="filter0_dddd_319_1061" x="0" y="0" width="328" height="214" filterUnits="userSpaceOnUse" color-interpolation-filters="sRGB">
<feFlood flood-opacity="0" result="BackgroundImageFix"/>
<feColorMatrix in="SourceAlpha" type="matrix" values="0 0 0 0 0 0 0 0 0 0 0 0 0 0 0 0 0 0 127 0" result="hardAlpha"/>
<feOffset dy="2.30969"/>
<feGaussianBlur stdDeviation="1.81152"/>
<feColorMatrix type="matrix" values="0 0 0 0 0.313726 0 0 0 0 0.768627 0 0 0 0 0.495686 0 0 0 0.0278729 0"/>
<feBlend mode="normal" in2="BackgroundImageFix" result="effect1_dropShadow_319_1061"/>
<feColorMatrix in="SourceAlpha" type="matrix" values="0 0 0 0 0 0 0 0 0 0 0 0 0 0 0 0 0 0 127 0" result="hardAlpha"/>
<feOffset dy="6.38599"/>
<feGaussianBlur stdDeviation="5.00862"/>
<feColorMatrix type="matrix" values="0 0 0 0 0.0653125 0 0 0 0 0.825 0 0 0 0 0.414769 0 0 0 0.08 0"/>
<feBlend mode="normal" in2="effect1_dropShadow_319_1061" result="effect2_dropShadow_319_1061"/>
<feColorMatrix in="SourceAlpha" type="matrix" values="0 0 0 0 0 0 0 0 0 0 0 0 0 0 0 0 0 0 127 0" result="hardAlpha"/>
<feOffset dy="15.375"/>
<feGaussianBlur stdDeviation="12.0588"/>
<feColorMatrix type="matrix" values="0 0 0 0 0.313726 0 0 0 0 0.768627 0 0 0 0 0.441098 0 0 0 0.0521271 0"/>
<feBlend mode="normal" in2="effect2_dropShadow_319_1061" result="effect3_dropShadow_319_1061"/>
<feColorMatrix in="SourceAlpha" type="matrix" values="0 0 0 0 0 0 0 0 0 0 0 0 0 0 0 0 0 0 127 0" result="hardAlpha"/>
<feOffset dy="51"/>
<feGaussianBlur stdDeviation="40"/>
<feColorMatrix type="matrix" values="0 0 0 0 0.313726 0 0 0 0 0.768627 0 0 0 0 0.495686 0 0 0 0.08 0"/>
<feBlend mode="normal" in2="effect3_dropShadow_319_1061" result="effect4_dropShadow_319_1061"/>
<feBlend mode="normal" in="SourceGraphic" in2="effect4_dropShadow_319_1061" result="shape"/>
</filter>
<linearGradient id="paint0_linear_319_1061" x1="131.886" y1="47.4243" x2="117.543" y2="61.0714" gradientUnits="userSpaceOnUse">
<stop stop-color="#00FD83"/>
<stop offset="0.760455" stop-color="#00BF63"/>
</linearGradient>
<linearGradient id="paint1_linear_319_1061" x1="131.886" y1="47.4243" x2="117.543" y2="61.0714" gradientUnits="userSpaceOnUse">
<stop stop-color="#00FD83"/>
<stop offset="0.760455" stop-color="#00BF63"/>
</linearGradient>
</defs>
</svg>
