<svg width="174" height="90" viewBox="0 0 174 90" fill="none" xmlns="http://www.w3.org/2000/svg">
<g id="Component 1">
<path id="logomy-letra-m" d="M19.645 17.7505C15.7382 17.7678 12.1413 17.8716 10.427 18.1535C5.65172 18.9387 3.12334 21.7304 2.74885 25.8723C2.37436 30.0142 2.24561 84.5 2.24561 84.5M19.645 17.7505C26.6209 17.7197 34.5851 17.9649 34.5851 17.9649C37.956 17.9649 43.7406 20.9572 43.7614 26.8136C43.7823 32.6701 43.7823 40.0124 43.7823 40.0124M19.645 17.7505C19.6685 12.8281 19.7138 9.40187 19.7906 8.55197C20.1651 4.41013 23.3488 2.52731 26.3451 1.96271C29.3415 1.39811 34.7724 1.58652 37.7687 1.96271C40.7651 2.3389 60.8032 7.4227 60.8032 22.4835M19.645 17.7505C19.554 36.8168 19.2874 83.4912 19.2874 84.6883C19.2874 86.1944 18.351 87.5123 16.291 87.7005C14.231 87.8887 8.05102 87.7005 5.42923 87.7005C2.80744 87.7005 2.37982 86.1943 2.24561 84.5M2.24561 84.6883V84.5M60.8448 17.7505C56.938 17.7678 53.3412 17.8716 51.6269 18.1535C46.8516 18.9387 44.3232 21.7304 43.9487 25.8723C43.5742 30.0142 43.4455 84.5 43.4455 84.5M60.8448 17.7505C67.8208 17.7197 75.785 17.9649 75.785 17.9649C79.1559 17.9649 84.5868 20.7888 84.9613 26.8136L84.4581 84.6883C84.5745 87.039 85.3375 87.5526 87.4544 87.7005H98.5035C100.902 87.7598 101.5 86.1947 101.5 84.6883L102.003 22.4835C102.003 7.4227 81.9649 2.3389 78.9686 1.96271C75.9723 1.58652 70.5413 1.39811 67.545 1.96271C64.5487 2.52731 61.365 4.41013 60.9905 8.55197C60.9136 9.40187 60.8683 12.8281 60.8448 17.7505ZM60.8448 17.7505C60.7539 36.8168 60.4872 83.4912 60.4873 84.6883C60.4873 86.1944 59.5509 87.5123 57.4909 87.7005C55.4309 87.8887 49.2509 87.7005 46.6291 87.7005C44.0073 87.7005 43.5797 86.1943 43.4455 84.5M43.4455 84.6883V84.5" stroke="url(#paint0_linear_237_280)" stroke-width="3"/>
<path id="logomy-letra-y" d="M131.274 72.0367C131.218 75.2561 131.206 78.9613 131.405 81.1587C131.779 85.3006 134.963 87.1834 137.959 87.748C140.956 88.3126 146.387 88.1242 149.383 87.748C152.379 87.3718 172.418 82.288 172.418 67.2272V43.6752M131.274 72.0367C131.322 69.1878 131.405 67.0959 131.405 66.3888C131.405 64.8826 130.469 63.5648 128.409 63.3765C126.349 63.1883 118.275 63.3765 117.547 63.3765C116.819 63.3765 114.759 63.3765 114.759 66.7653C114.759 70.154 118.691 72.0367 120.751 72.0367H131.274ZM131.274 72.0367H145.846C151.277 72.0367 155.373 67.1419 155.373 63V55.7032M155.373 55.7032H137.231C128.617 55.7032 114.197 50.2432 114.197 35.1823C114.197 35.1823 114.197 5.73407 114.197 4.60442C114.197 3.47478 114.379 2.92316 114.946 2.33894C115.406 1.86495 116.257 1.59219 117.193 1.59219C118.13 1.59219 127.68 1.59219 128.242 1.59219C128.804 1.59219 131.239 1.59219 131.239 4.60442C131.239 7.61666 131.239 30.8522 131.239 30.8522C131.613 36.877 137.044 39.701 140.415 39.701H148.842C152.213 39.701 155.373 39.701 155.373 33.136L155.185 5.35123C155.185 2.90379 155.584 1.58594 158.768 1.58594H168.693C172.626 1.58594 172.23 4.03338 172.23 5.35123L172.418 43.6752M155.373 55.7032H160.453C167.569 55.7032 172.418 49.5934 172.418 43.6752M155.397 30.2025V56.1831" stroke="url(#paint1_linear_237_280)" stroke-width="3"/>
</g>
<defs>
<linearGradient id="paint0_linear_237_280" x1="27.3234" y1="-6.92156" x2="72.3884" y2="79.6121" gradientUnits="userSpaceOnUse">
<stop offset="0.245176" stop-color="#00FD83"/>
<stop offset="1" stop-color="#00BF63"/>
</linearGradient>
<linearGradient id="paint1_linear_237_280" x1="128.833" y1="-6.97577" x2="183.719" y2="54.2917" gradientUnits="userSpaceOnUse">
<stop offset="0.245176" stop-color="#00FD83"/>
<stop offset="1" stop-color="#00BF63"/>
</linearGradient>
</defs>
</svg>
