<svg width="806" height="1053" viewBox="0 0 806 1053" fill="none" xmlns="http://www.w3.org/2000/svg">
<g id="fignu3">
<g id="fignu3-shadow" filter="url(#filter0_f_0_1)">
<ellipse cx="421.5" cy="956" rx="317.5" ry="30" fill="#464646" fill-opacity="0.4"/>
</g>
<g id="fignu3-card-verse" 
00>
<rect id="Rectangle 1018" width="529.684" height="336.005" rx="18.3409" transform="matrix(0.83147 0.55557 -0.285354 0.958422 95.8801 0)" fill="url(#paint0_linear_0_1)"/>
<rect id="Rectangle 1019" width="529.684" height="78.7511" transform="matrix(0.83147 0.55557 -0.285354 0.958422 88.9717 23.2034)" fill="#D6D6D6"/>
<rect id="Rectangle 1020" width="115.502" height="76.126" rx="38.063" transform="matrix(0.83147 0.55557 -0.285354 0.958422 63.208 168.69)" fill="url(#paint1_linear_0_1)"/>
<text id="5032 9334 3764 9846" transform="matrix(0.83147 0.55557 -0.285354 0.958422 36.4119 258.69)" fill="#FEFBFF" xml:space="preserve" style="white-space: pre" font-family="Sora" font-size="26.4108" letter-spacing="0.03em"><tspan x="0" y="27.4797">5032 9334 3764 9846</tspan></text>
<text id="gold" transform="matrix(0.83147 0.55557 -0.285354 0.958422 101.843 137.18)" fill="#F7F2FA" xml:space="preserve" style="white-space: pre" font-family="Sora" font-size="26.4108" font-weight="600" letter-spacing="0em"><tspan x="0" y="27.4797">gold</tspan></text>
<text id="02/17" transform="matrix(0.83147 0.55557 -0.285354 0.958422 49.6802 317.294)" fill="#FEFBFF" xml:space="preserve" style="white-space: pre" font-family="Sora" font-size="13.2054" letter-spacing="0em"><tspan x="0" y="13.4898">02/17</tspan></text>
<text id="02/20" transform="matrix(0.83147 0.55557 -0.285354 0.958422 111.9 358.868)" fill="#FEFBFF" xml:space="preserve" style="white-space: pre" font-family="Sora" font-size="13.2054" letter-spacing="0em"><tspan x="0" y="13.4898">02/20</tspan></text>
<text id="123" transform="matrix(0.83147 0.55557 -0.285354 0.958422 182.049 405.74)" fill="#FEFBFF" xml:space="preserve" style="white-space: pre" font-family="Sora" font-size="13.2054" letter-spacing="0em"><tspan x="0" y="13.4898">123</tspan></text>
<g id="Group 346">
<text id="cirrus." transform="matrix(0.83147 0.55557 -0.285354 0.958422 388.382 550.352)" fill="#FBF9FC" xml:space="preserve" style="white-space: pre" font-family="Sora" font-size="9.53725" font-weight="600" letter-spacing="0em"><tspan x="0" y="9.74266">cirrus.</tspan></text>
<circle id="Ellipse 7" cx="22.7427" cy="22.7427" r="22.7427" transform="matrix(0.83147 0.55557 -0.285354 0.958422 383.881 494.235)" fill="#0167B2"/>
<circle id="Ellipse 8" cx="22.7427" cy="22.7427" r="22.7427" transform="matrix(0.83147 0.55557 -0.285354 0.958422 407.061 509.723)" fill="#02A1E2"/>
<path id="Intersect" fill-rule="evenodd" clip-rule="evenodd" d="M402.705 553.515C408.377 552.533 413.131 548.212 415.224 541.18C417.318 534.149 416.288 525.963 412.986 518.984C407.313 519.967 402.56 524.288 400.466 531.319C398.373 538.351 399.403 546.536 402.705 553.515Z" fill="#207CBD"/>
</g>
<text id="member since" transform="matrix(0.83147 0.55557 -0.285354 0.958422 24.6523 303.1)" fill="#FEFBFF" xml:space="preserve" style="white-space: pre" font-family="Source Sans Pro" font-size="4.40181" letter-spacing="0.1em"><tspan x="0" y="4.56484">MEMBER&#10;</tspan><tspan x="0" y="10.5648">SINCE</tspan></text>
<text id="valid thru" transform="matrix(0.83147 0.55557 -0.285354 0.958422 92.9717 348.75)" fill="#FEFBFF" xml:space="preserve" style="white-space: pre" font-family="Source Sans Pro" font-size="4.40181" letter-spacing="0.1em"><tspan x="0" y="4.56484">VALID&#10;</tspan><tspan x="0" y="10.5648">THRU</tspan></text>
<text id="security code" transform="matrix(0.83147 0.55557 -0.285354 0.958422 155.191 390.323)" fill="#FEFBFF" xml:space="preserve" style="white-space: pre" font-family="Source Sans Pro" font-size="4.40181" letter-spacing="0.1em"><tspan x="0" y="4.56484">SECURITY&#10;</tspan><tspan x="0" y="10.5648">CODE</tspan></text>
<path id="Vector" d="M252.941 263.431C252.83 263.804 252.595 264.076 252.288 264.187C251.981 264.298 251.626 264.238 251.303 264.022L243.983 259.131L240.705 260.313L244.055 249.063C244.166 248.69 244.401 248.418 244.708 248.308C245.016 248.197 245.37 248.256 245.694 248.472L254.234 254.178C254.557 254.395 254.823 254.75 254.974 255.167C255.124 255.583 255.146 256.027 255.035 256.4L252.941 263.431Z" stroke="#FEFBFF" stroke-width="0.733634" stroke-linecap="round" stroke-linejoin="round"/>
<g id="Group 347">
<path id="Vector_2" d="M237.403 293.513C240.772 295.764 244.44 294.441 245.596 290.558C246.752 286.674 244.959 281.702 241.59 279.451C238.221 277.2 234.552 278.523 233.396 282.406C232.24 286.289 234.034 291.262 237.403 293.513Z" stroke="#FEFBFF" stroke-width="0.733634" stroke-linecap="round" stroke-linejoin="round"/>
<path id="Vector_3" d="M238.349 283.187C238.632 282.812 239.033 282.605 239.481 282.602C239.929 282.598 240.394 282.799 240.795 283.168C241.196 283.536 241.506 284.05 241.671 284.617C241.836 285.184 241.845 285.768 241.696 286.266C241.277 287.672 239.238 287.153 239.238 287.153" stroke="#FEFBFF" stroke-width="0.733634" stroke-linecap="round" stroke-linejoin="round"/>
<path id="Vector_4" d="M238.45 289.998L238.456 290.002" stroke="#FEFBFF" stroke-width="0.733634" stroke-linecap="round" stroke-linejoin="round"/>
</g>
<text id="Est&#195;&#161; com d&#195;&#186;vidas? Nosso app pode te ajudar." transform="matrix(0.83147 0.55557 -0.285354 0.958422 264.64 256.073)" fill="#FEFBFF" xml:space="preserve" style="white-space: pre" font-family="Source Sans Pro" font-size="6.60271" letter-spacing="0em"><tspan x="0" y="7.34726">Est&#xe1; com d&#xfa;vidas?&#10;</tspan><tspan x="0" y="17.3473">Nosso app pode te ajudar.</tspan></text>
<text id="Fale com a gente: 0800 591 2117" transform="matrix(0.83147 0.55557 -0.285354 0.958422 255.847 285.605)" fill="#FEFBFF" xml:space="preserve" style="white-space: pre" font-family="Source Sans Pro" font-size="6.60271" letter-spacing="0em"><tspan x="0" y="7.34726">Fale com a gente:&#10;</tspan><tspan x="0" y="17.3473">0800 591 2117</tspan></text>
<circle id="Ellipse 170" cx="23.1095" cy="23.1095" r="23.1095" transform="matrix(0.83147 0.55557 -0.285354 0.958422 101.511 211.986)" fill="#D9D9D9"/>
<path id="Subtract" fill-rule="evenodd" clip-rule="evenodd" d="M104.078 195.998L94.8562 189.836C77.3774 178.157 58.3452 185.023 52.3466 205.17C46.348 225.318 55.6546 251.118 73.1334 262.797L82.4706 269.036C110.484 254.181 116.82 239.268 104.078 195.998Z" fill="url(#paint2_linear_0_1)"/>
</g>
<g id="fignu3-card-front" class="fignu3-card-front">
<rect id="Rectangle 1021" width="529.684" height="336.005" rx="18.3409" transform="matrix(0.760406 -0.649448 0.468701 0.883357 199.999 574.002)" fill="url(#paint3_linear_0_1)"/>
<text id="WESLEY NASCIMENTO" transform="matrix(0.760406 -0.649448 0.468701 0.883357 439.509 687.75)" fill="#FEFBFF" xml:space="preserve" style="white-space: pre" font-family="Sora" font-size="17.6072" font-weight="600" letter-spacing="0.1em"><tspan x="0" y="18.4865">WESLEY NASCIMENTO</tspan></text>
<circle id="Ellipse 171" cx="33.5641" cy="33.5641" r="33.5641" transform="matrix(0.760406 -0.649448 0.468701 0.883357 513.101 344.961)" fill="#E71924"/>
<circle id="Ellipse 172" cx="33.5641" cy="33.5641" r="33.5641" transform="matrix(0.760406 -0.649448 0.468701 0.883357 544.206 318.395)" fill="#F99F19"/>
<path id="Intersect_2" fill-rule="evenodd" clip-rule="evenodd" d="M582.32 362.922C585.506 352.323 584.895 340.472 579.815 330.897C574.735 321.323 566.31 316.145 557.371 315.902C554.184 326.501 554.795 338.352 559.876 347.927C564.956 357.502 573.381 362.68 582.32 362.922Z" fill="#F26520"/>
<g id="Group 348">
<rect id="Rectangle 344" x="0.966889" y="0.184007" width="71.8482" height="50.8706" rx="4.45774" transform="matrix(0.760406 -0.649448 0.468701 0.883357 297.75 637.374)" fill="url(#paint4_linear_0_1)" stroke="#211F21" stroke-width="1.57332"/>
<path id="Vector 9" d="M306.514 651.332L322.864 637.367" stroke="#211F21" stroke-width="1.46727" stroke-linecap="round"/>
<path id="Vector 10" d="M314.134 665.693L330.126 652.034" stroke="#211F21" stroke-width="1.46727" stroke-linecap="round"/>
<path id="Vector 11" d="M352.417 632.995L368.368 619.372" stroke="#211F21" stroke-width="1.46727" stroke-linecap="round"/>
<path id="Vector 12" d="M344.803 619.302L360.994 605.474" stroke="#211F21" stroke-width="1.46727" stroke-linecap="round"/>
<circle id="Ellipse 12" cx="1.57332" cy="1.57332" r="1.57332" transform="matrix(0.760406 -0.649448 0.468701 0.883357 327.519 619.927)" fill="#211F21"/>
<g id="Vector 13">
<path d="M399.668 597.301C398.059 586.213 395.825 581.085 387.916 575.151C387.077 574.522 387.015 573.453 387.332 572.958C387.648 572.463 388.347 572.09 389.219 572.692C398.069 578.803 400.633 584.278 402.2 596.612C402.293 597.879 401.609 598.633 400.974 598.669C400.231 598.711 399.804 598.238 399.668 597.301Z" fill="#FEFBFF"/>
<path d="M384.097 579.422C383.822 579.995 384.033 581.091 385.004 581.678C391.128 585.871 392.985 589.673 393.976 598.587C394.055 599.504 394.625 600.104 395.235 599.868C395.956 599.588 396.217 598.649 396.139 597.749C395.305 588.089 393.207 583.921 386.184 578.987C385.535 578.531 384.511 578.564 384.097 579.422Z" fill="#FEFBFF"/>
<path d="M381.707 585.84C381.232 586.582 381.534 587.442 382.292 588.033C386.231 591.11 387.8 593.381 388.314 599.383C388.365 600.462 388.682 601.382 389.497 601.066C390.311 600.751 390.579 599.922 390.524 599.179C390 591.74 387.857 589.148 383.149 585.281C382.748 584.951 382.183 585.097 381.707 585.84Z" fill="#FEFBFF"/>
<path d="M378.503 591.269C378.151 592.243 378.439 593.018 379.533 593.756C381.837 595.335 382.542 596.726 382.851 600.01C382.964 601.478 383.482 602.837 384.403 602.387C385.323 601.938 385.503 601.306 385.26 599.635C384.474 595.365 383.553 593.357 380.59 590.833C379.854 590.151 379.055 590.125 378.503 591.269Z" fill="#FEFBFF"/>
</g>
<path id="Vector 14" d="M339.7 615.582C334.958 610.835 330.521 610.295 325.935 614.212C320.352 618.98 321.394 625.266 322.741 637.135C328.069 641.203 329.787 644.378 330.484 651.728C340.378 660.588 344.972 661.995 349.485 658.052C355.467 652.943 354.045 645.599 352.218 633.166C347.611 629.212 345.838 626.374 344.563 619.575" stroke="#211F21" stroke-width="1.46727" stroke-linecap="round"/>
</g>
<g id="Group 5284">
<g id="figmy4-letter-m" filter="url(#filter1_i_0_1)">
<path d="M365.905 743.729C364.446 744.964 363.122 746.142 362.543 746.81C360.929 748.671 360.604 750.744 361.385 752.76C362.167 754.776 373.24 777.167 373.24 777.167M365.905 743.729C368.51 741.523 371.547 739.132 371.547 739.132C372.809 738.073 375.642 737.626 376.953 740.304C378.264 742.981 379.899 746.346 379.899 746.346M365.905 743.729C364.818 741.466 364.072 739.881 363.912 739.468C363.13 737.452 363.903 735.588 364.9 734.388C365.896 733.188 367.972 731.567 369.177 730.798C370.383 730.029 379.018 726.062 382.371 732.964M365.905 743.729C370.114 752.495 379.397 771.35 379.663 771.898C379.999 772.589 379.941 773.487 379.212 774.22C378.482 774.954 376.126 776.81 375.144 777.634C374.163 778.458 373.667 777.902 373.24 777.167M373.282 777.254L373.24 777.167M381.333 730.782C379.874 732.018 378.55 733.195 377.971 733.863C376.357 735.724 376.032 737.798 376.814 739.813C377.595 741.829 388.668 764.221 388.668 764.221M381.333 730.782C383.938 728.576 386.975 726.185 386.975 726.185C388.238 725.126 390.9 724.714 392.381 727.357L404.068 751.419C404.635 752.46 405.035 752.455 405.86 751.858L409.998 748.386C410.909 747.659 410.785 746.754 410.45 746.064L397.799 720.017C394.447 713.115 385.811 717.082 384.606 717.851C383.4 718.621 381.324 720.241 380.328 721.441C379.331 722.642 378.558 724.505 379.34 726.521C379.5 726.934 380.246 728.519 381.333 730.782ZM381.333 730.782C385.543 739.548 394.825 758.403 395.092 758.952C395.427 759.642 395.369 760.54 394.64 761.274C393.91 762.007 391.554 763.863 390.573 764.687C389.591 765.511 389.095 764.955 388.668 764.221M388.71 764.307L388.668 764.221" stroke="white" stroke-width="2"/>
</g>
<g id="figmy4-letter-y" filter="url(#filter2_i_0_1)">
<path d="M418.334 730.613C419.026 732.097 419.841 733.789 420.401 734.728C421.457 736.498 423.059 736.362 424.299 735.683C425.539 735.005 427.518 733.223 428.55 732.116C429.582 731.009 435.914 722.435 432.581 715.572L428.711 707.604M418.334 730.613C417.721 729.299 417.289 728.32 417.133 727.998C416.799 727.312 416.159 727.004 415.351 727.561C414.543 728.119 411.58 730.726 411.309 730.953C411.038 731.181 410.271 731.824 411.021 733.368C411.771 734.912 413.651 734.542 414.418 733.899L418.334 730.613ZM418.334 730.613L423.757 726.062C425.778 724.366 426.219 720.856 425.302 718.969L425.029 718.407M425.029 718.407L418.278 724.073C415.072 726.763 408.498 728.779 405.165 721.916C405.165 721.916 398.648 708.498 398.398 707.984C398.148 707.469 398.093 707.161 398.175 706.717C398.241 706.358 398.497 705.968 398.846 705.675C399.194 705.383 402.749 702.4 402.958 702.225C403.167 702.049 404.073 701.289 404.74 702.661C405.406 704.034 410.548 714.621 410.548 714.621C412.021 717.249 414.667 716.84 415.922 715.787L419.058 713.156C420.312 712.103 421.488 711.116 420.035 708.125L413.817 695.523C413.275 694.408 413.132 693.683 414.316 692.689L418.01 689.589C419.474 688.361 419.868 689.6 420.16 690.2L428.711 707.604M425.029 718.407L426.92 716.821C429.568 714.598 430.021 710.3 428.711 707.604M419.395 706.781L425.145 718.619" stroke="white" stroke-width="2"/>
</g>
</g>
</g>
</g>
<defs>
<filter id="filter0_f_0_1" x="37" y="859" width="769" height="194" filterUnits="userSpaceOnUse" color-interpolation-filters="sRGB">
<feFlood flood-opacity="0" result="BackgroundImageFix"/>
<feBlend mode="normal" in="SourceGraphic" in2="BackgroundImageFix" result="shape"/>
<feGaussianBlur stdDeviation="33.5" result="effect1_foregroundBlur_0_1"/>
</filter>
<filter id="filter1_i_0_1" x="360.097" y="713.575" width="52.8244" height="65.5744" filterUnits="userSpaceOnUse" color-interpolation-filters="sRGB">
<feFlood flood-opacity="0" result="BackgroundImageFix"/>
<feBlend mode="normal" in="SourceGraphic" in2="BackgroundImageFix" result="shape"/>
<feColorMatrix in="SourceAlpha" type="matrix" values="0 0 0 0 0 0 0 0 0 0 0 0 0 0 0 0 0 0 127 0" result="hardAlpha"/>
<feOffset dx="1.34" dy="-1.34"/>
<feGaussianBlur stdDeviation="2.24"/>
<feComposite in2="hardAlpha" operator="arithmetic" k2="-1" k3="1"/>
<feColorMatrix type="matrix" values="0 0 0 0 0.6 0 0 0 0 1 0 0 0 0 0.807843 0 0 0 0.5 0"/>
<feBlend mode="normal" in2="shape" result="effect1_innerShadow_0_1"/>
</filter>
<filter id="filter2_i_0_1" x="397.258" y="686.62" width="38.506" height="50.6339" filterUnits="userSpaceOnUse" color-interpolation-filters="sRGB">
<feFlood flood-opacity="0" result="BackgroundImageFix"/>
<feBlend mode="normal" in="SourceGraphic" in2="BackgroundImageFix" result="shape"/>
<feColorMatrix in="SourceAlpha" type="matrix" values="0 0 0 0 0 0 0 0 0 0 0 0 0 0 0 0 0 0 127 0" result="hardAlpha"/>
<feOffset dx="1.34" dy="-1.34"/>
<feGaussianBlur stdDeviation="2.24"/>
<feComposite in2="hardAlpha" operator="arithmetic" k2="-1" k3="1"/>
<feColorMatrix type="matrix" values="0 0 0 0 0.6 0 0 0 0 1 0 0 0 0 0.807843 0 0 0 0.5 0"/>
<feBlend mode="normal" in2="shape" result="effect1_innerShadow_0_1"/>
</filter>
<linearGradient id="paint0_linear_0_1" x1="133.156" y1="-33.2504" x2="276.246" y2="340.927" gradientUnits="userSpaceOnUse">
<stop offset="0.245176" stop-color="#00FD83"/>
<stop offset="1" stop-color="#00BF63"/>
</linearGradient>
<linearGradient id="paint1_linear_0_1" x1="60.8916" y1="76.298" x2="92.8047" y2="4.4018" gradientUnits="userSpaceOnUse">
<stop stop-color="#F6F3F7"/>
<stop offset="1" stop-color="#D6D6D6"/>
</linearGradient>
<linearGradient id="paint2_linear_0_1" x1="105.776" y1="201.348" x2="52.8412" y2="233.869" gradientUnits="userSpaceOnUse">
<stop stop-color="#F5F5F5"/>
<stop offset="1" stop-color="#D6D6D6"/>
</linearGradient>
<linearGradient id="paint3_linear_0_1" x1="133.156" y1="-33.2504" x2="276.246" y2="340.927" gradientUnits="userSpaceOnUse">
<stop offset="0.245176" stop-color="#00FD83"/>
<stop offset="1" stop-color="#00BF63"/>
</linearGradient>
<linearGradient id="paint4_linear_0_1" x1="67.2386" y1="7.24643" x2="5.6133" y2="48.3299" gradientUnits="userSpaceOnUse">
<stop stop-color="#F4F4F4"/>
<stop offset="1" stop-color="#D6D6D6"/>
</linearGradient>
</defs>
</svg>
