<svg width="806" height="1053" viewBox="0 0 806 1053" fill="none" xmlns="http://www.w3.org/2000/svg">
<g id="fignu3">
<g id="fignu3-shadow" filter="url(#filter0_f_0_1)">
<ellipse cx="421.5" class="fignu3-shadow" cy="956" rx="317.5" ry="30" fill="#464646" fill-opacity="0.4"/>
</g>
<g id="fignu3-card-verse" class="fignu3-card-verse">
<rect id="Rectangle 1018" width="529.684" height="336.005" rx="18.3409" transform="matrix(0.83147 0.55557 -0.285354 0.958422 95.8801 0)" fill="url(#paint0_linear_0_1)"/>
<rect id="Rectangle 1019" width="529.684" height="78.7511" transform="matrix(0.83147 0.55557 -0.285354 0.958422 88.9717 23.2034)" fill="#D6D6D6"/>
<rect id="Rectangle 1020" width="115.502" height="76.126" rx="38.063" transform="matrix(0.83147 0.55557 -0.285354 0.958422 63.208 168.69)" fill="url(#paint1_linear_0_1)"/>
<text id="5032 9334 3764 9846" transform="matrix(0.83147 0.55557 -0.285354 0.958422 36.4119 258.69)" fill="#FEFBFF" xml:space="preserve" style="white-space: pre" font-family="Sora" font-size="26.4108" letter-spacing="0.03em"><tspan x="0" y="27.4797">5032 9334 3764 9846</tspan></text>
<text id="gold" transform="matrix(0.83147 0.55557 -0.285354 0.958422 101.843 137.18)" fill="#F7F2FA" xml:space="preserve" style="white-space: pre" font-family="Sora" font-size="26.4108" font-weight="600" letter-spacing="0em"><tspan x="0" y="27.4797">gold</tspan></text>
<text id="02/17" transform="matrix(0.83147 0.55557 -0.285354 0.958422 49.6802 317.294)" fill="#FEFBFF" xml:space="preserve" style="white-space: pre" font-family="Sora" font-size="13.2054" letter-spacing="0em"><tspan x="0" y="13.4898">02/17</tspan></text>
<text id="02/20" transform="matrix(0.83147 0.55557 -0.285354 0.958422 111.9 358.868)" fill="#FEFBFF" xml:space="preserve" style="white-space: pre" font-family="Sora" font-size="13.2054" letter-spacing="0em"><tspan x="0" y="13.4898">02/20</tspan></text>
<text id="123" transform="matrix(0.83147 0.55557 -0.285354 0.958422 182.049 405.74)" fill="#FEFBFF" xml:space="preserve" style="white-space: pre" font-family="Sora" font-size="13.2054" letter-spacing="0em"><tspan x="0" y="13.4898">123</tspan></text>
<g id="Group 346">
<text id="cirrus." transform="matrix(0.83147 0.55557 -0.285354 0.958422 388.382 550.352)" fill="#FBF9FC" xml:space="preserve" style="white-space: pre" font-family="Sora" font-size="9.53725" font-weight="600" letter-spacing="0em"><tspan x="0" y="9.74266">cirrus.</tspan></text>
<circle id="Ellipse 7" cx="22.7427" cy="22.7427" r="22.7427" transform="matrix(0.83147 0.55557 -0.285354 0.958422 383.881 494.235)" fill="#0167B2"/>
<circle id="Ellipse 8" cx="22.7427" cy="22.7427" r="22.7427" transform="matrix(0.83147 0.55557 -0.285354 0.958422 407.061 509.723)" fill="#02A1E2"/>
<path id="Intersect" fill-rule="evenodd" clip-rule="evenodd" d="M402.705 553.515C408.377 552.533 413.131 548.212 415.224 541.18C417.318 534.149 416.288 525.963 412.986 518.984C407.313 519.967 402.56 524.288 400.466 531.319C398.373 538.351 399.403 546.536 402.705 553.515Z" fill="#207CBD"/>
</g>
<text id="member since" transform="matrix(0.83147 0.55557 -0.285354 0.958422 24.6523 303.1)" fill="#FEFBFF" xml:space="preserve" style="white-space: pre" font-family="Source Sans Pro" font-size="4.40181" letter-spacing="0.1em"><tspan x="0" y="4.56484">MEMBER&#10;</tspan><tspan x="0" y="10.5648">SINCE</tspan></text>
<text id="valid thru" transform="matrix(0.83147 0.55557 -0.285354 0.958422 92.9717 348.75)" fill="#FEFBFF" xml:space="preserve" style="white-space: pre" font-family="Source Sans Pro" font-size="4.40181" letter-spacing="0.1em"><tspan x="0" y="4.56484">VALID&#10;</tspan><tspan x="0" y="10.5648">THRU</tspan></text>
<text id="security code" transform="matrix(0.83147 0.55557 -0.285354 0.958422 155.191 390.323)" fill="#FEFBFF" xml:space="preserve" style="white-space: pre" font-family="Source Sans Pro" font-size="4.40181" letter-spacing="0.1em"><tspan x="0" y="4.56484">SECURITY&#10;</tspan><tspan x="0" y="10.5648">CODE</tspan></text>
<path id="Vector" d="M252.941 263.431C252.83 263.804 252.595 264.076 252.288 264.187C251.981 264.298 251.626 264.238 251.303 264.022L243.983 259.131L240.705 260.313L244.055 249.063C244.166 248.69 244.401 248.418 244.708 248.308C245.016 248.197 245.37 248.256 245.694 248.472L254.234 254.178C254.557 254.395 254.823 254.75 254.974 255.167C255.124 255.583 255.146 256.027 255.035 256.4L252.941 263.431Z" stroke="#FEFBFF" stroke-width="0.733634" stroke-linecap="round" stroke-linejoin="round"/>
<g id="Group 347">
<path id="Vector_2" d="M237.403 293.513C240.772 295.764 244.44 294.441 245.596 290.558C246.752 286.674 244.959 281.702 241.59 279.451C238.221 277.2 234.552 278.523 233.396 282.406C232.24 286.289 234.034 291.262 237.403 293.513Z" stroke="#FEFBFF" stroke-width="0.733634" stroke-linecap="round" stroke-linejoin="round"/>
<path id="Vector_3" d="M238.349 283.187C238.632 282.812 239.033 282.605 239.481 282.602C239.929 282.598 240.394 282.799 240.795 283.168C241.196 283.536 241.506 284.05 241.671 284.617C241.836 285.184 241.845 285.768 241.696 286.266C241.277 287.672 239.238 287.153 239.238 287.153" stroke="#FEFBFF" stroke-width="0.733634" stroke-linecap="round" stroke-linejoin="round"/>
<path id="Vector_4" d="M238.45 289.998L238.456 290.002" stroke="#FEFBFF" stroke-width="0.733634" stroke-linecap="round" stroke-linejoin="round"/>
</g>
<text id="Est&#195;&#161; com d&#195;&#186;vidas? Nosso app pode te ajudar." transform="matrix(0.83147 0.55557 -0.285354 0.958422 264.64 256.073)" fill="#FEFBFF" xml:space="preserve" style="white-space: pre" font-family="Source Sans Pro" font-size="6.60271" letter-spacing="0em"><tspan x="0" y="7.34726">Est&#xe1; com d&#xfa;vidas?&#10;</tspan><tspan x="0" y="17.3473">Nosso app pode te ajudar.</tspan></text>
<text id="Fale com a gente: 0800 591 2117" transform="matrix(0.83147 0.55557 -0.285354 0.958422 255.847 285.605)" fill="#FEFBFF" xml:space="preserve" style="white-space: pre" font-family="Source Sans Pro" font-size="6.60271" letter-spacing="0em"><tspan x="0" y="7.34726">Fale com a gente:&#10;</tspan><tspan x="0" y="17.3473">0800 591 2117</tspan></text>
<circle id="Ellipse 170" cx="23.1095" cy="23.1095" r="23.1095" transform="matrix(0.83147 0.55557 -0.285354 0.958422 101.511 211.986)" fill="#D9D9D9"/>
<path id="Subtract" fill-rule="evenodd" clip-rule="evenodd" d="M104.078 195.998L94.8562 189.836C77.3774 178.157 58.3452 185.023 52.3466 205.17C46.348 225.318 55.6546 251.118 73.1334 262.797L82.4706 269.036C110.484 254.181 116.82 239.268 104.078 195.998Z" fill="url(#paint2_linear_0_1)"/>
</g>
<g id="fignu3-card-front" class="fignu3-card-front">
<rect id="Rectangle 1021" width="529.684" height="336.005" rx="18.3409" transform="matrix(0.760406 -0.649448 0.468701 0.883357 199.999 574.002)" fill="url(#paint3_linear_0_1)"/>
<text id="WESLEY NASCIMENTO" transform="matrix(0.760406 -0.649448 0.468701 0.883357 439.509 687.75)" fill="#FEFBFF" xml:space="preserve" style="white-space: pre" font-family="Sora" font-size="17.6072" font-weight="600" letter-spacing="0.1em"><tspan x="0" y="18.4865">WESLEY NASCIMENTO</tspan></text>
<path id="Union" fill-rule="evenodd" clip-rule="evenodd" d="M363.174 735.862C363.178 735.871 363.181 735.875 363.181 735.874C363.182 735.874 363.181 735.868 363.178 735.856C363.166 735.805 363.129 735.642 363.121 735.34C363.112 734.946 363.159 734.419 363.323 733.821C363.642 732.654 364.426 731.142 366.24 729.808C373.647 724.36 380.516 726.699 382.684 730.784L396.441 756.711C396.583 756.979 396.595 757.113 396.595 757.145C396.581 757.181 396.517 757.304 396.286 757.501L391.978 761.18C391.748 761.377 391.634 761.406 391.602 761.409C391.579 761.397 391.485 761.332 391.343 761.064L378.645 737.132C377.742 735.43 376.143 734.376 374.468 734.033C372.787 733.688 370.869 734.025 369.292 735.371L364.902 739.12L363.174 735.862ZM396.597 757.141C396.598 757.136 396.598 757.134 396.599 757.134C396.599 757.134 396.598 757.137 396.597 757.141ZM391.593 761.409C391.593 761.409 391.595 761.409 391.599 761.41C391.595 761.41 391.593 761.41 391.593 761.409ZM370.447 737.548L366.058 741.297L381.161 769.761C381.523 770.444 381.824 771.302 381.618 772.279C381.416 773.235 380.814 773.879 380.287 774.329L375.901 778.075C375.411 778.494 374.75 778.9 374.009 778.824C373.228 778.743 372.65 778.162 372.237 777.383L359.394 753.179C358.678 751.829 358.489 749.691 358.762 747.702C359.038 745.687 359.84 743.444 361.458 742.062L363.028 740.721L361.297 737.458C361.043 736.979 360.936 736.295 360.921 735.637C360.904 734.928 360.989 734.073 361.241 733.152C361.754 731.28 362.936 729.203 365.225 727.519C373.375 721.525 381.632 723.669 384.558 729.184L398.315 755.11C398.656 755.753 398.909 756.571 398.748 757.499C398.584 758.443 398.055 759.154 397.441 759.678L393.133 763.357C392.52 763.881 391.801 764.236 391.051 764.073C390.312 763.913 389.81 763.308 389.469 762.665L376.771 738.733C376.235 737.722 375.185 736.956 373.935 736.699C372.691 736.444 371.409 736.726 370.447 737.548ZM362.614 744.239L364.184 742.898L379.286 771.362C379.403 771.582 379.453 771.725 379.473 771.806C379.421 771.877 379.32 771.991 379.132 772.152L374.745 775.898C374.507 776.101 374.396 776.127 374.372 776.13C374.339 776.112 374.247 776.039 374.111 775.782L361.268 751.578C360.926 750.933 360.714 749.528 360.932 747.936C361.146 746.371 361.725 744.997 362.614 744.239ZM374.386 776.135C374.385 776.136 374.382 776.135 374.375 776.132C374.382 776.133 374.386 776.135 374.386 776.135ZM422.222 743.123C422.217 743.115 422.215 743.111 422.214 743.111C422.214 743.112 422.215 743.118 422.218 743.13C422.23 743.181 422.267 743.344 422.274 743.646C422.283 744.04 422.236 744.567 422.073 745.165C421.753 746.331 420.97 747.843 419.155 749.178C411.749 754.626 404.879 752.287 402.711 748.202L388.955 722.275C388.813 722.007 388.801 721.873 388.801 721.84C388.815 721.804 388.879 721.682 389.109 721.485L393.418 717.806C393.648 717.609 393.761 717.58 393.793 717.576C393.817 717.589 393.91 717.654 394.052 717.921L406.75 741.854C407.653 743.555 409.253 744.609 410.928 744.953C412.609 745.298 414.527 744.961 416.104 743.615L420.493 739.866L422.222 743.123ZM388.799 721.845C388.798 721.849 388.797 721.852 388.797 721.852C388.797 721.852 388.797 721.849 388.799 721.845ZM393.803 717.576C393.803 717.577 393.801 717.577 393.797 717.576C393.801 717.576 393.803 717.576 393.803 717.576ZM414.949 741.437L419.338 737.689L404.235 709.224C403.873 708.542 403.571 707.684 403.778 706.707C403.98 705.75 404.582 705.107 405.108 704.657L409.495 700.911C409.985 700.492 410.645 700.085 411.387 700.162C412.168 700.242 412.745 700.823 413.159 701.603L426.001 725.807C426.717 727.156 426.906 729.295 426.634 731.283C426.358 733.299 425.555 735.542 423.937 736.924L422.367 738.265L424.098 741.528C424.352 742.007 424.459 742.691 424.475 743.349C424.491 744.058 424.406 744.913 424.154 745.833C423.642 747.706 422.46 749.783 420.17 751.467C412.021 757.461 403.763 755.317 400.837 749.802L387.081 723.875C386.74 723.233 386.487 722.415 386.648 721.486C386.812 720.543 387.341 719.832 387.954 719.308L392.262 715.629C392.876 715.105 393.594 714.75 394.345 714.913C395.083 715.073 395.585 715.678 395.926 716.321L408.625 740.253C409.161 741.264 410.211 742.03 411.461 742.287C412.705 742.542 413.986 742.259 414.949 741.437ZM422.782 734.747L421.212 736.088L406.109 707.624C405.993 707.404 405.943 707.261 405.923 707.18C405.975 707.108 406.076 706.995 406.264 706.834L410.65 703.088C410.888 702.884 411 702.859 411.023 702.856C411.056 702.874 411.149 702.947 411.285 703.203L424.127 727.408C424.469 728.052 424.681 729.458 424.464 731.05C424.249 732.614 423.67 733.988 422.782 734.747ZM411.01 702.851C411.01 702.85 411.014 702.851 411.021 702.854C411.013 702.853 411.01 702.851 411.01 702.851Z" fill="#FEFBFF"/>
<circle id="Ellipse 171" cx="33.5641" cy="33.5641" r="33.5641" transform="matrix(0.760406 -0.649448 0.468701 0.883357 513.101 344.961)" fill="#E71924"/>
<circle id="Ellipse 172" cx="33.5641" cy="33.5641" r="33.5641" transform="matrix(0.760406 -0.649448 0.468701 0.883357 544.206 318.395)" fill="#F99F19"/>
<path id="Intersect_2" fill-rule="evenodd" clip-rule="evenodd" d="M582.32 362.922C585.506 352.323 584.895 340.472 579.815 330.897C574.735 321.323 566.31 316.145 557.371 315.902C554.184 326.501 554.795 338.352 559.876 347.927C564.956 357.502 573.381 362.68 582.32 362.922Z" fill="#F26520"/>
<g id="Group 348">
<rect id="Rectangle 344" x="0.966889" y="0.184007" width="71.8482" height="50.8706" rx="4.45774" transform="matrix(0.760406 -0.649448 0.468701 0.883357 297.75 637.374)" fill="url(#paint4_linear_0_1)" stroke="#211F21" stroke-width="1.57332"/>
<path id="Vector 9" d="M306.514 651.332L322.864 637.367" stroke="#211F21" stroke-width="1.46727" stroke-linecap="round"/>
<path id="Vector 10" d="M314.134 665.693L330.126 652.034" stroke="#211F21" stroke-width="1.46727" stroke-linecap="round"/>
<path id="Vector 11" d="M352.417 632.995L368.368 619.372" stroke="#211F21" stroke-width="1.46727" stroke-linecap="round"/>
<path id="Vector 12" d="M344.803 619.302L360.994 605.474" stroke="#211F21" stroke-width="1.46727" stroke-linecap="round"/>
<circle id="Ellipse 12" cx="1.57332" cy="1.57332" r="1.57332" transform="matrix(0.760406 -0.649448 0.468701 0.883357 327.519 619.927)" fill="#211F21"/>
<g id="Vector 13">
<path d="M399.668 597.301C398.059 586.213 395.825 581.085 387.916 575.151C387.077 574.522 387.015 573.453 387.332 572.958C387.648 572.463 388.347 572.09 389.219 572.692C398.069 578.803 400.633 584.278 402.2 596.612C402.293 597.879 401.609 598.633 400.974 598.669C400.231 598.711 399.804 598.238 399.668 597.301Z" fill="#FEFBFF"/>
<path d="M384.097 579.422C383.822 579.995 384.033 581.091 385.004 581.678C391.128 585.871 392.985 589.673 393.976 598.587C394.055 599.504 394.625 600.104 395.235 599.868C395.956 599.588 396.217 598.649 396.139 597.749C395.305 588.089 393.207 583.921 386.184 578.987C385.535 578.531 384.511 578.564 384.097 579.422Z" fill="#FEFBFF"/>
<path d="M381.707 585.84C381.232 586.582 381.534 587.442 382.292 588.033C386.231 591.11 387.8 593.381 388.314 599.383C388.365 600.462 388.682 601.382 389.497 601.066C390.311 600.751 390.579 599.922 390.524 599.179C390 591.74 387.857 589.148 383.149 585.281C382.748 584.951 382.183 585.097 381.707 585.84Z" fill="#FEFBFF"/>
<path d="M378.503 591.269C378.151 592.243 378.439 593.018 379.533 593.756C381.837 595.335 382.542 596.726 382.851 600.01C382.964 601.478 383.482 602.837 384.403 602.387C385.323 601.938 385.503 601.306 385.26 599.635C384.474 595.365 383.553 593.357 380.59 590.833C379.854 590.151 379.055 590.125 378.503 591.269Z" fill="#FEFBFF"/>
</g>
<path id="Vector 14" d="M339.7 615.582C334.958 610.835 330.521 610.295 325.935 614.212C320.352 618.98 321.394 625.266 322.741 637.135C328.069 641.203 329.787 644.378 330.484 651.728C340.378 660.588 344.972 661.995 349.485 658.052C355.467 652.943 354.045 645.599 352.218 633.166C347.611 629.212 345.838 626.374 344.563 619.575" stroke="#211F21" stroke-width="1.46727" stroke-linecap="round"/>
</g>
</g>
</g>
<defs>
<filter id="filter0_f_0_1" x="37" y="859" width="769" height="194" filterUnits="userSpaceOnUse" color-interpolation-filters="sRGB">
<feFlood flood-opacity="0" result="BackgroundImageFix"/>
<feBlend mode="normal" in="SourceGraphic" in2="BackgroundImageFix" result="shape"/>
<feGaussianBlur stdDeviation="33.5" result="effect1_foregroundBlur_0_1"/>
</filter>
<linearGradient id="paint0_linear_0_1" x1="133.156" y1="-33.2504" x2="276.246" y2="340.927" gradientUnits="userSpaceOnUse">
<stop offset="0.245176" stop-color="#00FD83"/>
<stop offset="1" stop-color="#00BF63"/>
</linearGradient>
<linearGradient id="paint1_linear_0_1" x1="60.8916" y1="76.298" x2="92.8047" y2="4.4018" gradientUnits="userSpaceOnUse">
<stop stop-color="#F6F3F7"/>
<stop offset="1" stop-color="#D6D6D6"/>
</linearGradient>
<linearGradient id="paint2_linear_0_1" x1="105.776" y1="201.348" x2="52.8412" y2="233.869" gradientUnits="userSpaceOnUse">
<stop stop-color="#F5F5F5"/>
<stop offset="1" stop-color="#D6D6D6"/>
</linearGradient>
<linearGradient id="paint3_linear_0_1" x1="133.156" y1="-33.2504" x2="276.246" y2="340.927" gradientUnits="userSpaceOnUse">
<stop offset="0.245176" stop-color="#00FD83"/>
<stop offset="1" stop-color="#00BF63"/>
</linearGradient>
<linearGradient id="paint4_linear_0_1" x1="67.2386" y1="7.24643" x2="5.6133" y2="48.3299" gradientUnits="userSpaceOnUse">
<stop stop-color="#F4F4F4"/>
<stop offset="1" stop-color="#D6D6D6"/>
</linearGradient>
</defs>
</svg>
