<svg width="328" height="214" viewBox="0 0 328 214" fill="none" xmlns="http://www.w3.org/2000/svg">
<g filter="url(#filter0_dddd_319_1060)">
<rect x="80" y="29" width="168" height="54" rx="16" fill="#FEFBFF"/>
</g>
<path fill-rule="evenodd" clip-rule="evenodd" d="M115.41 46.2083C115.16 46.4664 115 46.82 115 47.2294V64.3578C115 64.8292 115.212 65.2265 115.53 65.4893L125.111 55.9086L115.41 46.2083ZM126.151 56.9491L117.85 65.2502L128.263 59.0613L126.151 56.9491ZM129.569 58.2855L127.192 55.9086L129.713 53.3874L131.633 54.5287C132.593 55.099 132.593 56.4882 131.633 57.0586L129.569 58.2855ZM126.151 54.8681L117.283 46L128.408 52.6117L126.151 54.8681Z" fill="url(#paint0_linear_319_1060)"/>
<path d="M145.81 51V45.096H147.286C148.198 45.096 148.891 45.348 149.365 45.852C149.839 46.356 150.076 47.079 150.076 48.021C150.076 48.489 150.016 48.909 149.896 49.281C149.776 49.647 149.599 49.959 149.365 50.217C149.131 50.469 148.843 50.664 148.501 50.802C148.159 50.934 147.766 51 147.322 51H145.81ZM146.557 50.388H147.232C147.922 50.388 148.438 50.181 148.78 49.767C149.128 49.353 149.302 48.771 149.302 48.021C149.302 47.271 149.128 46.698 148.78 46.302C148.438 45.906 147.922 45.708 147.232 45.708H146.557V50.388ZM152.976 51.108C152.706 51.108 152.448 51.057 152.202 50.955C151.962 50.853 151.749 50.706 151.563 50.514C151.377 50.316 151.227 50.076 151.113 49.794C151.005 49.506 150.951 49.182 150.951 48.822C150.951 48.456 151.005 48.132 151.113 47.85C151.227 47.562 151.377 47.319 151.563 47.121C151.749 46.923 151.962 46.773 152.202 46.671C152.448 46.569 152.706 46.518 152.976 46.518C153.246 46.518 153.501 46.569 153.741 46.671C153.987 46.773 154.203 46.923 154.389 47.121C154.575 47.319 154.722 47.562 154.83 47.85C154.944 48.132 155.001 48.456 155.001 48.822C155.001 49.182 154.944 49.506 154.83 49.794C154.722 50.076 154.575 50.316 154.389 50.514C154.203 50.706 153.987 50.853 153.741 50.955C153.501 51.057 153.246 51.108 152.976 51.108ZM152.976 50.496C153.162 50.496 153.333 50.457 153.489 50.379C153.645 50.295 153.777 50.181 153.885 50.037C153.999 49.887 154.086 49.71 154.146 49.506C154.206 49.302 154.236 49.074 154.236 48.822C154.236 48.57 154.206 48.342 154.146 48.138C154.086 47.928 153.999 47.748 153.885 47.598C153.777 47.448 153.645 47.334 153.489 47.256C153.333 47.172 153.162 47.13 152.976 47.13C152.79 47.13 152.619 47.172 152.463 47.256C152.307 47.334 152.172 47.448 152.058 47.598C151.95 47.748 151.866 47.928 151.806 48.138C151.746 48.342 151.716 48.57 151.716 48.822C151.716 49.074 151.746 49.302 151.806 49.506C151.866 49.71 151.95 49.887 152.058 50.037C152.172 50.181 152.307 50.295 152.463 50.379C152.619 50.457 152.79 50.496 152.976 50.496ZM156.811 51L155.596 46.626H156.352L157 49.155C157.048 49.365 157.093 49.569 157.135 49.767C157.177 49.965 157.219 50.166 157.261 50.37H157.297C157.345 50.166 157.393 49.965 157.441 49.767C157.489 49.563 157.54 49.359 157.594 49.155L158.269 46.626H158.989L159.673 49.155C159.727 49.365 159.778 49.569 159.826 49.767C159.88 49.965 159.931 50.166 159.979 50.37H160.015C160.063 50.166 160.108 49.965 160.15 49.767C160.192 49.569 160.237 49.365 160.285 49.155L160.924 46.626H161.626L160.456 51H159.556L158.926 48.651C158.872 48.441 158.821 48.234 158.773 48.03C158.731 47.826 158.683 47.613 158.629 47.391H158.593C158.545 47.613 158.497 47.829 158.449 48.039C158.401 48.243 158.347 48.45 158.287 48.66L157.675 51H156.811ZM162.578 51V46.626H163.19L163.253 47.256H163.28C163.49 47.046 163.709 46.872 163.937 46.734C164.171 46.59 164.441 46.518 164.747 46.518C165.209 46.518 165.545 46.662 165.755 46.95C165.971 47.238 166.079 47.664 166.079 48.228V51H165.341V48.327C165.341 47.913 165.275 47.616 165.143 47.436C165.011 47.25 164.801 47.157 164.513 47.157C164.285 47.157 164.084 47.214 163.91 47.328C163.736 47.442 163.538 47.61 163.316 47.832V51H162.578ZM168.283 51.108C168.001 51.108 167.8 51.024 167.68 50.856C167.56 50.688 167.5 50.442 167.5 50.118V44.592H168.238V50.172C168.238 50.292 168.259 50.376 168.301 50.424C168.343 50.472 168.391 50.496 168.445 50.496C168.469 50.496 168.49 50.496 168.508 50.496C168.532 50.496 168.565 50.49 168.607 50.478L168.706 51.036C168.658 51.06 168.601 51.078 168.535 51.09C168.469 51.102 168.385 51.108 168.283 51.108ZM171.495 51.108C171.225 51.108 170.967 51.057 170.721 50.955C170.481 50.853 170.268 50.706 170.082 50.514C169.896 50.316 169.746 50.076 169.632 49.794C169.524 49.506 169.47 49.182 169.47 48.822C169.47 48.456 169.524 48.132 169.632 47.85C169.746 47.562 169.896 47.319 170.082 47.121C170.268 46.923 170.481 46.773 170.721 46.671C170.967 46.569 171.225 46.518 171.495 46.518C171.765 46.518 172.02 46.569 172.26 46.671C172.506 46.773 172.722 46.923 172.908 47.121C173.094 47.319 173.241 47.562 173.349 47.85C173.463 48.132 173.52 48.456 173.52 48.822C173.52 49.182 173.463 49.506 173.349 49.794C173.241 50.076 173.094 50.316 172.908 50.514C172.722 50.706 172.506 50.853 172.26 50.955C172.02 51.057 171.765 51.108 171.495 51.108ZM171.495 50.496C171.681 50.496 171.852 50.457 172.008 50.379C172.164 50.295 172.296 50.181 172.404 50.037C172.518 49.887 172.605 49.71 172.665 49.506C172.725 49.302 172.755 49.074 172.755 48.822C172.755 48.57 172.725 48.342 172.665 48.138C172.605 47.928 172.518 47.748 172.404 47.598C172.296 47.448 172.164 47.334 172.008 47.256C171.852 47.172 171.681 47.13 171.495 47.13C171.309 47.13 171.138 47.172 170.982 47.256C170.826 47.334 170.691 47.448 170.577 47.598C170.469 47.748 170.385 47.928 170.325 48.138C170.265 48.342 170.235 48.57 170.235 48.822C170.235 49.074 170.265 49.302 170.325 49.506C170.385 49.71 170.469 49.887 170.577 50.037C170.691 50.181 170.826 50.295 170.982 50.379C171.138 50.457 171.309 50.496 171.495 50.496ZM175.557 51.108C175.191 51.108 174.885 51 174.639 50.784C174.399 50.568 174.279 50.262 174.279 49.866C174.279 49.386 174.492 49.02 174.918 48.768C175.344 48.51 176.025 48.33 176.961 48.228C176.961 48.09 176.946 47.955 176.916 47.823C176.892 47.691 176.847 47.574 176.781 47.472C176.715 47.37 176.622 47.289 176.502 47.229C176.388 47.163 176.241 47.13 176.061 47.13C175.809 47.13 175.572 47.178 175.35 47.274C175.128 47.37 174.93 47.478 174.756 47.598L174.468 47.085C174.672 46.953 174.921 46.827 175.215 46.707C175.509 46.581 175.833 46.518 176.187 46.518C176.721 46.518 177.108 46.683 177.348 47.013C177.588 47.337 177.708 47.772 177.708 48.318V51H177.096L177.033 50.478H177.006C176.796 50.652 176.571 50.802 176.331 50.928C176.091 51.048 175.833 51.108 175.557 51.108ZM175.773 50.514C175.983 50.514 176.181 50.466 176.367 50.37C176.553 50.268 176.751 50.121 176.961 49.929V48.714C176.595 48.762 176.286 48.819 176.034 48.885C175.788 48.951 175.587 49.029 175.431 49.119C175.281 49.209 175.17 49.314 175.098 49.434C175.032 49.548 174.999 49.674 174.999 49.812C174.999 50.064 175.074 50.244 175.224 50.352C175.374 50.46 175.557 50.514 175.773 50.514ZM180.578 51.108C180.026 51.108 179.585 50.91 179.255 50.514C178.931 50.118 178.769 49.554 178.769 48.822C178.769 48.468 178.82 48.15 178.922 47.868C179.03 47.58 179.171 47.337 179.345 47.139C179.519 46.941 179.72 46.788 179.948 46.68C180.176 46.572 180.416 46.518 180.668 46.518C180.92 46.518 181.139 46.563 181.325 46.653C181.511 46.743 181.7 46.866 181.892 47.022L181.856 46.275V44.592H182.603V51H181.991L181.928 50.487H181.901C181.727 50.655 181.526 50.802 181.298 50.928C181.076 51.048 180.836 51.108 180.578 51.108ZM180.74 50.487C180.944 50.487 181.136 50.439 181.316 50.343C181.496 50.241 181.676 50.088 181.856 49.884V47.598C181.67 47.43 181.49 47.313 181.316 47.247C181.148 47.175 180.974 47.139 180.794 47.139C180.62 47.139 180.455 47.181 180.299 47.265C180.149 47.343 180.017 47.457 179.903 47.607C179.789 47.751 179.699 47.925 179.633 48.129C179.567 48.333 179.534 48.561 179.534 48.813C179.534 49.341 179.639 49.752 179.849 50.046C180.059 50.34 180.356 50.487 180.74 50.487ZM186.823 51L185.248 46.626H186.013L186.841 49.11C186.907 49.326 186.973 49.542 187.039 49.758C187.111 49.974 187.18 50.187 187.246 50.397H187.282C187.348 50.187 187.414 49.974 187.48 49.758C187.546 49.542 187.612 49.326 187.678 49.11L188.506 46.626H189.235L187.687 51H186.823ZM190.079 51V46.626H190.817V51H190.079ZM190.457 45.726C190.313 45.726 190.19 45.681 190.088 45.591C189.992 45.501 189.944 45.387 189.944 45.249C189.944 45.105 189.992 44.991 190.088 44.907C190.19 44.817 190.313 44.772 190.457 44.772C190.601 44.772 190.721 44.817 190.817 44.907C190.919 44.991 190.97 45.105 190.97 45.249C190.97 45.387 190.919 45.501 190.817 45.591C190.721 45.681 190.601 45.726 190.457 45.726ZM193.302 51.108C192.936 51.108 192.63 51 192.384 50.784C192.144 50.568 192.024 50.262 192.024 49.866C192.024 49.386 192.237 49.02 192.663 48.768C193.089 48.51 193.77 48.33 194.706 48.228C194.706 48.09 194.691 47.955 194.661 47.823C194.637 47.691 194.592 47.574 194.526 47.472C194.46 47.37 194.367 47.289 194.247 47.229C194.133 47.163 193.986 47.13 193.806 47.13C193.554 47.13 193.317 47.178 193.095 47.274C192.873 47.37 192.675 47.478 192.501 47.598L192.213 47.085C192.417 46.953 192.666 46.827 192.96 46.707C193.254 46.581 193.578 46.518 193.932 46.518C194.466 46.518 194.853 46.683 195.093 47.013C195.333 47.337 195.453 47.772 195.453 48.318V51H194.841L194.778 50.478H194.751C194.541 50.652 194.316 50.802 194.076 50.928C193.836 51.048 193.578 51.108 193.302 51.108ZM193.518 50.514C193.728 50.514 193.926 50.466 194.112 50.37C194.298 50.268 194.496 50.121 194.706 49.929V48.714C194.34 48.762 194.031 48.819 193.779 48.885C193.533 48.951 193.332 49.029 193.176 49.119C193.026 49.209 192.915 49.314 192.843 49.434C192.777 49.548 192.744 49.674 192.744 49.812C192.744 50.064 192.819 50.244 192.969 50.352C193.119 50.46 193.302 50.514 193.518 50.514Z" fill="#232224"/>
<path d="M150.745 66.156C150.164 66.156 149.618 66.065 149.107 65.883C148.604 65.6923 148.167 65.415 147.794 65.051C147.421 64.687 147.127 64.2363 146.91 63.699C146.702 63.153 146.598 62.5247 146.598 61.814C146.598 61.112 146.706 60.488 146.923 59.942C147.14 59.3873 147.434 58.9193 147.807 58.538C148.188 58.1567 148.63 57.8663 149.133 57.667C149.636 57.4677 150.169 57.368 150.732 57.368C151.347 57.368 151.876 57.4807 152.318 57.706C152.76 57.9313 153.12 58.187 153.397 58.473L152.396 59.695C152.179 59.5043 151.95 59.344 151.707 59.214C151.464 59.084 151.161 59.019 150.797 59.019C150.468 59.019 150.164 59.084 149.887 59.214C149.618 59.3353 149.384 59.513 149.185 59.747C148.986 59.981 148.83 60.267 148.717 60.605C148.613 60.943 148.561 61.3243 148.561 61.749C148.561 62.6243 148.756 63.3047 149.146 63.79C149.545 64.2667 150.143 64.505 150.94 64.505C151.113 64.505 151.282 64.4833 151.447 64.44C151.612 64.3967 151.746 64.3317 151.85 64.245V62.789H150.446V61.229H153.54V65.129C153.245 65.415 152.855 65.6577 152.37 65.857C151.885 66.0563 151.343 66.156 150.745 66.156ZM157.904 66.156C157.497 66.156 157.102 66.0823 156.721 65.935C156.34 65.779 156.002 65.558 155.707 65.272C155.421 64.986 155.191 64.635 155.018 64.219C154.845 63.7943 154.758 63.3133 154.758 62.776C154.758 62.2387 154.845 61.762 155.018 61.346C155.191 60.9213 155.421 60.566 155.707 60.28C156.002 59.994 156.34 59.7773 156.721 59.63C157.102 59.474 157.497 59.396 157.904 59.396C158.311 59.396 158.701 59.474 159.074 59.63C159.455 59.7773 159.789 59.994 160.075 60.28C160.37 60.566 160.604 60.9213 160.777 61.346C160.95 61.762 161.037 62.2387 161.037 62.776C161.037 63.3133 160.95 63.7943 160.777 64.219C160.604 64.635 160.37 64.986 160.075 65.272C159.789 65.558 159.455 65.779 159.074 65.935C158.701 66.0823 158.311 66.156 157.904 66.156ZM157.904 64.609C158.294 64.609 158.589 64.4443 158.788 64.115C158.987 63.7857 159.087 63.3393 159.087 62.776C159.087 62.2127 158.987 61.7663 158.788 61.437C158.589 61.1077 158.294 60.943 157.904 60.943C157.505 60.943 157.206 61.1077 157.007 61.437C156.816 61.7663 156.721 62.2127 156.721 62.776C156.721 63.3393 156.816 63.7857 157.007 64.115C157.206 64.4443 157.505 64.609 157.904 64.609ZM165.115 66.156C164.708 66.156 164.313 66.0823 163.932 65.935C163.551 65.779 163.213 65.558 162.918 65.272C162.632 64.986 162.402 64.635 162.229 64.219C162.056 63.7943 161.969 63.3133 161.969 62.776C161.969 62.2387 162.056 61.762 162.229 61.346C162.402 60.9213 162.632 60.566 162.918 60.28C163.213 59.994 163.551 59.7773 163.932 59.63C164.313 59.474 164.708 59.396 165.115 59.396C165.522 59.396 165.912 59.474 166.285 59.63C166.666 59.7773 167 59.994 167.286 60.28C167.581 60.566 167.815 60.9213 167.988 61.346C168.161 61.762 168.248 62.2387 168.248 62.776C168.248 63.3133 168.161 63.7943 167.988 64.219C167.815 64.635 167.581 64.986 167.286 65.272C167 65.558 166.666 65.779 166.285 65.935C165.912 66.0823 165.522 66.156 165.115 66.156ZM165.115 64.609C165.505 64.609 165.8 64.4443 165.999 64.115C166.198 63.7857 166.298 63.3393 166.298 62.776C166.298 62.2127 166.198 61.7663 165.999 61.437C165.8 61.1077 165.505 60.943 165.115 60.943C164.716 60.943 164.417 61.1077 164.218 61.437C164.027 61.7663 163.932 62.2127 163.932 62.776C163.932 63.3393 164.027 63.7857 164.218 64.115C164.417 64.4443 164.716 64.609 165.115 64.609ZM171.858 68.743C171.477 68.743 171.121 68.7083 170.792 68.639C170.471 68.5783 170.185 68.483 169.934 68.353C169.691 68.223 169.501 68.054 169.362 67.846C169.223 67.638 169.154 67.391 169.154 67.105C169.154 66.585 169.462 66.1517 170.077 65.805V65.753C169.904 65.6403 169.761 65.4973 169.648 65.324C169.535 65.1507 169.479 64.9297 169.479 64.661C169.479 64.427 169.548 64.206 169.687 63.998C169.826 63.7813 169.999 63.5993 170.207 63.452V63.4C169.982 63.244 169.778 63.023 169.596 62.737C169.423 62.4423 169.336 62.1043 169.336 61.723C169.336 61.333 169.41 60.995 169.557 60.709C169.704 60.4143 169.899 60.1717 170.142 59.981C170.393 59.7817 170.679 59.6343 171 59.539C171.321 59.4437 171.654 59.396 172.001 59.396C172.382 59.396 172.716 59.448 173.002 59.552H175.355V60.943H174.328C174.389 61.0383 174.436 61.1597 174.471 61.307C174.514 61.4543 174.536 61.6147 174.536 61.788C174.536 62.1607 174.471 62.4857 174.341 62.763C174.211 63.0317 174.029 63.257 173.795 63.439C173.57 63.6123 173.301 63.7423 172.989 63.829C172.686 63.9157 172.356 63.959 172.001 63.959C171.75 63.959 171.49 63.9157 171.221 63.829C171.134 63.8983 171.074 63.9677 171.039 64.037C171.004 64.1063 170.987 64.1973 170.987 64.31C170.987 64.4747 171.056 64.596 171.195 64.674C171.342 64.752 171.598 64.791 171.962 64.791H173.002C173.799 64.791 174.406 64.921 174.822 65.181C175.247 65.4323 175.459 65.8483 175.459 66.429C175.459 66.767 175.372 67.0747 175.199 67.352C175.034 67.638 174.796 67.8807 174.484 68.08C174.172 68.288 173.795 68.4483 173.353 68.561C172.911 68.6823 172.413 68.743 171.858 68.743ZM172.001 62.802C172.252 62.802 172.46 62.7153 172.625 62.542C172.798 62.36 172.885 62.087 172.885 61.723C172.885 61.385 172.798 61.1293 172.625 60.956C172.46 60.774 172.252 60.683 172.001 60.683C171.75 60.683 171.537 60.7697 171.364 60.943C171.199 61.1163 171.117 61.3763 171.117 61.723C171.117 62.087 171.199 62.36 171.364 62.542C171.537 62.7153 171.75 62.802 172.001 62.802ZM172.157 67.547C172.59 67.547 172.946 67.469 173.223 67.313C173.5 67.1657 173.639 66.9793 173.639 66.754C173.639 66.5547 173.552 66.4203 173.379 66.351C173.214 66.2817 172.972 66.247 172.651 66.247H171.988C171.763 66.247 171.581 66.2383 171.442 66.221C171.303 66.2123 171.182 66.195 171.078 66.169C170.844 66.377 170.727 66.5893 170.727 66.806C170.727 67.0487 170.857 67.2307 171.117 67.352C171.377 67.482 171.724 67.547 172.157 67.547ZM178.256 66.156C177.927 66.156 177.65 66.104 177.424 66C177.199 65.896 177.017 65.753 176.878 65.571C176.748 65.3803 176.653 65.155 176.592 64.895C176.532 64.6263 176.501 64.3273 176.501 63.998V56.887H178.412V64.076C178.412 64.2753 178.447 64.414 178.516 64.492C178.594 64.57 178.672 64.609 178.75 64.609C178.794 64.609 178.828 64.609 178.854 64.609C178.889 64.609 178.932 64.6003 178.984 64.583L179.218 66C179.114 66.0433 178.98 66.078 178.815 66.104C178.659 66.1387 178.473 66.156 178.256 66.156ZM183.107 66.156C182.648 66.156 182.219 66.0823 181.82 65.935C181.421 65.779 181.075 65.558 180.78 65.272C180.485 64.9773 180.256 64.622 180.091 64.206C179.926 63.79 179.844 63.3133 179.844 62.776C179.844 62.256 179.931 61.788 180.104 61.372C180.277 60.9473 180.503 60.592 180.78 60.306C181.066 60.0113 181.391 59.786 181.755 59.63C182.119 59.474 182.496 59.396 182.886 59.396C183.345 59.396 183.744 59.474 184.082 59.63C184.429 59.786 184.715 60.0027 184.94 60.28C185.174 60.5573 185.347 60.8867 185.46 61.268C185.573 61.6407 185.629 62.048 185.629 62.49C185.629 62.6633 185.62 62.828 185.603 62.984C185.586 63.14 185.568 63.257 185.551 63.335H181.69C181.777 63.803 181.967 64.1497 182.262 64.375C182.565 64.5917 182.934 64.7 183.367 64.7C183.826 64.7 184.29 64.557 184.758 64.271L185.395 65.428C185.066 65.6533 184.697 65.831 184.29 65.961C183.891 66.091 183.497 66.156 183.107 66.156ZM181.677 62.074H184.004C184.004 61.71 183.922 61.4153 183.757 61.19C183.592 60.9647 183.315 60.852 182.925 60.852C182.622 60.852 182.353 60.9517 182.119 61.151C181.894 61.3503 181.746 61.658 181.677 62.074ZM189.708 66V57.524H192.62C193.088 57.524 193.526 57.5717 193.933 57.667C194.34 57.7537 194.696 57.9053 194.999 58.122C195.302 58.33 195.541 58.6117 195.714 58.967C195.896 59.3137 195.987 59.7427 195.987 60.254C195.987 60.748 195.896 61.177 195.714 61.541C195.541 61.905 195.302 62.204 194.999 62.438C194.696 62.672 194.345 62.8453 193.946 62.958C193.547 63.0707 193.123 63.127 192.672 63.127H191.619V66H189.708ZM191.619 61.606H192.555C193.595 61.606 194.115 61.1553 194.115 60.254C194.115 59.812 193.976 59.5 193.699 59.318C193.422 59.136 193.023 59.045 192.503 59.045H191.619V61.606ZM199.051 66.156C198.722 66.156 198.445 66.104 198.219 66C197.994 65.896 197.812 65.753 197.673 65.571C197.543 65.3803 197.448 65.155 197.387 64.895C197.327 64.6263 197.296 64.3273 197.296 63.998V56.887H199.207V64.076C199.207 64.2753 199.242 64.414 199.311 64.492C199.389 64.57 199.467 64.609 199.545 64.609C199.589 64.609 199.623 64.609 199.649 64.609C199.684 64.609 199.727 64.6003 199.779 64.583L200.013 66C199.909 66.0433 199.775 66.078 199.61 66.104C199.454 66.1387 199.268 66.156 199.051 66.156ZM202.641 66.156C202.346 66.156 202.078 66.104 201.835 66C201.601 65.9047 201.402 65.7703 201.237 65.597C201.072 65.415 200.942 65.207 200.847 64.973C200.76 64.739 200.717 64.4833 200.717 64.206C200.717 63.53 201.003 63.0013 201.575 62.62C202.147 62.2387 203.07 61.983 204.344 61.853C204.327 61.567 204.24 61.3417 204.084 61.177C203.937 61.0037 203.685 60.917 203.33 60.917C203.053 60.917 202.775 60.969 202.498 61.073C202.229 61.177 201.939 61.32 201.627 61.502L200.938 60.241C201.354 59.9897 201.787 59.786 202.238 59.63C202.697 59.474 203.183 59.396 203.694 59.396C204.526 59.396 205.159 59.6343 205.592 60.111C206.034 60.579 206.255 61.3113 206.255 62.308V66H204.695L204.565 65.337H204.513C204.236 65.5797 203.945 65.779 203.642 65.935C203.339 66.0823 203.005 66.156 202.641 66.156ZM203.291 64.674C203.508 64.674 203.694 64.6263 203.85 64.531C204.006 64.4357 204.171 64.3013 204.344 64.128V62.997C203.668 63.0923 203.2 63.231 202.94 63.413C202.68 63.595 202.55 63.8117 202.55 64.063C202.55 64.271 202.615 64.427 202.745 64.531C202.884 64.6263 203.066 64.674 203.291 64.674ZM208.586 68.522C208.387 68.522 208.218 68.509 208.079 68.483C207.941 68.4657 207.806 68.4353 207.676 68.392L208.014 66.936C208.075 66.9533 208.144 66.9707 208.222 66.988C208.3 67.0053 208.374 67.014 208.443 67.014C208.764 67.014 209.011 66.936 209.184 66.78C209.358 66.624 209.488 66.4203 209.574 66.169L209.665 65.831L207.182 59.552H209.106L210.029 62.321C210.125 62.6157 210.211 62.9147 210.289 63.218C210.367 63.5213 210.45 63.8333 210.536 64.154H210.588C210.658 63.8507 210.727 63.5473 210.796 63.244C210.874 62.932 210.952 62.6243 211.03 62.321L211.81 59.552H213.643L211.407 66.065C211.251 66.4723 211.087 66.8277 210.913 67.131C210.749 67.443 210.554 67.6987 210.328 67.898C210.112 68.106 209.86 68.262 209.574 68.366C209.297 68.47 208.968 68.522 208.586 68.522Z" fill="#232224"/>
<defs>
<filter id="filter0_dddd_319_1060" x="0" y="0" width="328" height="214" filterUnits="userSpaceOnUse" color-interpolation-filters="sRGB">
<feFlood flood-opacity="0" result="BackgroundImageFix"/>
<feColorMatrix in="SourceAlpha" type="matrix" values="0 0 0 0 0 0 0 0 0 0 0 0 0 0 0 0 0 0 127 0" result="hardAlpha"/>
<feOffset dy="2.30969"/>
<feGaussianBlur stdDeviation="1.81152"/>
<feColorMatrix type="matrix" values="0 0 0 0 0.313726 0 0 0 0 0.768627 0 0 0 0 0.495686 0 0 0 0.0278729 0"/>
<feBlend mode="normal" in2="BackgroundImageFix" result="effect1_dropShadow_319_1060"/>
<feColorMatrix in="SourceAlpha" type="matrix" values="0 0 0 0 0 0 0 0 0 0 0 0 0 0 0 0 0 0 127 0" result="hardAlpha"/>
<feOffset dy="6.38599"/>
<feGaussianBlur stdDeviation="5.00862"/>
<feColorMatrix type="matrix" values="0 0 0 0 0.0653125 0 0 0 0 0.825 0 0 0 0 0.414769 0 0 0 0.08 0"/>
<feBlend mode="normal" in2="effect1_dropShadow_319_1060" result="effect2_dropShadow_319_1060"/>
<feColorMatrix in="SourceAlpha" type="matrix" values="0 0 0 0 0 0 0 0 0 0 0 0 0 0 0 0 0 0 127 0" result="hardAlpha"/>
<feOffset dy="15.375"/>
<feGaussianBlur stdDeviation="12.0588"/>
<feColorMatrix type="matrix" values="0 0 0 0 0.313726 0 0 0 0 0.768627 0 0 0 0 0.441098 0 0 0 0.0521271 0"/>
<feBlend mode="normal" in2="effect2_dropShadow_319_1060" result="effect3_dropShadow_319_1060"/>
<feColorMatrix in="SourceAlpha" type="matrix" values="0 0 0 0 0 0 0 0 0 0 0 0 0 0 0 0 0 0 127 0" result="hardAlpha"/>
<feOffset dy="51"/>
<feGaussianBlur stdDeviation="40"/>
<feColorMatrix type="matrix" values="0 0 0 0 0.313726 0 0 0 0 0.768627 0 0 0 0 0.495686 0 0 0 0.08 0"/>
<feBlend mode="normal" in2="effect3_dropShadow_319_1060" result="effect4_dropShadow_319_1060"/>
<feBlend mode="normal" in="SourceGraphic" in2="effect4_dropShadow_319_1060" result="shape"/>
</filter>
<linearGradient id="paint0_linear_319_1060" x1="130.634" y1="47.3879" x2="116.645" y2="61.7347" gradientUnits="userSpaceOnUse">
<stop stop-color="#00FD83"/>
<stop offset="0.760455" stop-color="#00BF63"/>
</linearGradient>
</defs>
</svg>
