<svg width="232" height="232" viewBox="0 0 232 232" fill="none" xmlns="http://www.w3.org/2000/svg">
<g id="icon-config" filter="url(#filter0_dddd_241_295)">
<g clip-path="url(#clip0_241_295)">
<rect id="Rectangle 1006" x="80" y="29" width="72" height="72" rx="17.0769" fill="#FEFBFF"/>
<g id="Group 446">
<path id="Vector" d="M116 70.3635C118.41 70.3635 120.364 68.4098 120.364 65.9999C120.364 63.5899 118.41 61.6362 116 61.6362C113.59 61.6362 111.636 63.5899 111.636 65.9999C111.636 68.4098 113.59 70.3635 116 70.3635Z" stroke="url(#paint0_linear_241_295)" stroke-width="3" stroke-linecap="round" stroke-linejoin="round"/>
<path id="Vector_2" d="M126.764 70.3636C126.57 70.8024 126.512 71.289 126.598 71.7609C126.683 72.2327 126.908 72.6681 127.244 73.0109L127.331 73.0982C127.601 73.3684 127.816 73.6892 127.962 74.0424C128.109 74.3955 128.184 74.7741 128.184 75.1564C128.184 75.5387 128.109 75.9172 127.962 76.2704C127.816 76.6235 127.601 76.9444 127.331 77.2145C127.061 77.485 126.74 77.6996 126.387 77.846C126.034 77.9924 125.655 78.0677 125.273 78.0677C124.89 78.0677 124.512 77.9924 124.159 77.846C123.806 77.6996 123.485 77.485 123.215 77.2145L123.127 77.1273C122.784 76.7919 122.349 76.567 121.877 76.4814C121.405 76.3959 120.919 76.4537 120.48 76.6473C120.05 76.8317 119.683 77.1378 119.424 77.5281C119.166 77.9183 119.027 78.3756 119.025 78.8436V79.0909C119.025 79.8624 118.719 80.6024 118.173 81.1479C117.628 81.6935 116.888 82 116.116 82C115.345 82 114.605 81.6935 114.059 81.1479C113.514 80.6024 113.207 79.8624 113.207 79.0909V78.96C113.196 78.4786 113.04 78.0116 112.76 77.6199C112.48 77.2282 112.088 76.9299 111.636 76.7636C111.198 76.57 110.711 76.5123 110.239 76.5978C109.767 76.6834 109.332 76.9083 108.989 77.2436L108.902 77.3309C108.632 77.6014 108.311 77.816 107.958 77.9624C107.604 78.1088 107.226 78.1841 106.844 78.1841C106.461 78.1841 106.083 78.1088 105.73 77.9624C105.376 77.816 105.056 77.6014 104.785 77.3309C104.515 77.0607 104.3 76.7399 104.154 76.3867C104.008 76.0336 103.932 75.655 103.932 75.2727C103.932 74.8904 104.008 74.5119 104.154 74.1587C104.3 73.8056 104.515 73.4847 104.785 73.2145L104.873 73.1273C105.208 72.7845 105.433 72.3491 105.519 71.8772C105.604 71.4054 105.546 70.9187 105.353 70.48C105.168 70.0498 104.862 69.6829 104.472 69.4244C104.082 69.166 103.624 69.0273 103.156 69.0255H102.909C102.138 69.0255 101.398 68.719 100.852 68.1734C100.306 67.6278 100 66.8879 100 66.1164C100 65.3448 100.306 64.6049 100.852 64.0593C101.398 63.5138 102.138 63.2073 102.909 63.2073H103.04C103.521 63.196 103.988 63.0402 104.38 62.76C104.772 62.4799 105.07 62.0883 105.236 61.6364C105.43 61.1976 105.488 60.711 105.402 60.2391C105.317 59.7673 105.092 59.3319 104.756 58.9891L104.669 58.9018C104.399 58.6316 104.184 58.3108 104.038 57.9576C103.891 57.6045 103.816 57.2259 103.816 56.8436C103.816 56.4613 103.891 56.0828 104.038 55.7296C104.184 55.3765 104.399 55.0556 104.669 54.7855C104.939 54.515 105.26 54.3004 105.613 54.154C105.966 54.0076 106.345 53.9323 106.727 53.9323C107.11 53.9323 107.488 54.0076 107.841 54.154C108.194 54.3004 108.515 54.515 108.785 54.7855L108.873 54.8727C109.216 55.2081 109.651 55.433 110.123 55.5186C110.595 55.6041 111.081 55.5463 111.52 55.3527H111.636C112.067 55.1683 112.433 54.8622 112.692 54.4719C112.95 54.0817 113.089 53.6244 113.091 53.1564V52.9091C113.091 52.1376 113.397 51.3976 113.943 50.8521C114.489 50.3065 115.228 50 116 50C116.772 50 117.511 50.3065 118.057 50.8521C118.603 51.3976 118.909 52.1376 118.909 52.9091V53.04C118.911 53.5081 119.05 53.9653 119.308 54.3556C119.567 54.7458 119.933 55.052 120.364 55.2364C120.802 55.43 121.289 55.4877 121.761 55.4022C122.233 55.3166 122.668 55.0917 123.011 54.7564L123.098 54.6691C123.368 54.3986 123.689 54.184 124.042 54.0376C124.396 53.8912 124.774 53.8159 125.156 53.8159C125.539 53.8159 125.917 53.8912 126.27 54.0376C126.624 54.184 126.944 54.3986 127.215 54.6691C127.485 54.9393 127.7 55.2601 127.846 55.6133C127.992 55.9664 128.068 56.345 128.068 56.7273C128.068 57.1096 127.992 57.4881 127.846 57.8413C127.7 58.1944 127.485 58.5153 127.215 58.7855L127.127 58.8727C126.792 59.2155 126.567 59.6509 126.481 60.1228C126.396 60.5946 126.454 61.0813 126.647 61.52V61.6364C126.832 62.0666 127.138 62.4335 127.528 62.6919C127.918 62.9504 128.376 63.089 128.844 63.0909H129.091C129.862 63.0909 130.602 63.3974 131.148 63.943C131.694 64.4885 132 65.2285 132 66C132 66.7715 131.694 67.5115 131.148 68.057C130.602 68.6026 129.862 68.9091 129.091 68.9091H128.96C128.492 68.911 128.035 69.0496 127.644 69.3081C127.254 69.5665 126.948 69.9334 126.764 70.3636V70.3636Z" stroke="url(#paint1_linear_241_295)" stroke-width="3" stroke-linecap="round" stroke-linejoin="round"/>
</g>
</g>
</g>
<defs>
<filter id="filter0_dddd_241_295" x="0" y="0" width="232" height="232" filterUnits="userSpaceOnUse" color-interpolation-filters="sRGB">
<feFlood flood-opacity="0" result="BackgroundImageFix"/>
<feColorMatrix in="SourceAlpha" type="matrix" values="0 0 0 0 0 0 0 0 0 0 0 0 0 0 0 0 0 0 127 0" result="hardAlpha"/>
<feOffset dy="2.30969"/>
<feGaussianBlur stdDeviation="1.81152"/>
<feColorMatrix type="matrix" values="0 0 0 0 0.0745098 0 0 0 0 0.913725 0 0 0 0 0.411765 0 0 0 0.0278729 0"/>
<feBlend mode="normal" in2="BackgroundImageFix" result="effect1_dropShadow_241_295"/>
<feColorMatrix in="SourceAlpha" type="matrix" values="0 0 0 0 0 0 0 0 0 0 0 0 0 0 0 0 0 0 127 0" result="hardAlpha"/>
<feOffset dy="6.38599"/>
<feGaussianBlur stdDeviation="5.00862"/>
<feColorMatrix type="matrix" values="0 0 0 0 0.0745098 0 0 0 0 0.913725 0 0 0 0 0.411765 0 0 0 0.04 0"/>
<feBlend mode="normal" in2="effect1_dropShadow_241_295" result="effect2_dropShadow_241_295"/>
<feColorMatrix in="SourceAlpha" type="matrix" values="0 0 0 0 0 0 0 0 0 0 0 0 0 0 0 0 0 0 127 0" result="hardAlpha"/>
<feOffset dy="15.375"/>
<feGaussianBlur stdDeviation="12.0588"/>
<feColorMatrix type="matrix" values="0 0 0 0 0.0745098 0 0 0 0 0.913725 0 0 0 0 0.411765 0 0 0 0.0521271 0"/>
<feBlend mode="normal" in2="effect2_dropShadow_241_295" result="effect3_dropShadow_241_295"/>
<feColorMatrix in="SourceAlpha" type="matrix" values="0 0 0 0 0 0 0 0 0 0 0 0 0 0 0 0 0 0 127 0" result="hardAlpha"/>
<feOffset dy="51"/>
<feGaussianBlur stdDeviation="40"/>
<feColorMatrix type="matrix" values="0 0 0 0 0.0745098 0 0 0 0 0.913725 0 0 0 0 0.411765 0 0 0 0.08 0"/>
<feBlend mode="normal" in2="effect3_dropShadow_241_295" result="effect4_dropShadow_241_295"/>
<feBlend mode="normal" in="SourceGraphic" in2="effect4_dropShadow_241_295" result="shape"/>
</filter>
<linearGradient id="paint0_linear_241_295" x1="119.011" y1="62.8144" x2="113.295" y2="69.4035" gradientUnits="userSpaceOnUse">
<stop stop-color="#00FD83"/>
<stop offset="0.70003" stop-color="#00BF63"/>
</linearGradient>
<linearGradient id="paint1_linear_241_295" x1="127.04" y1="54.32" x2="106.08" y2="78.48" gradientUnits="userSpaceOnUse">
<stop stop-color="#00FD83"/>
<stop offset="0.70003" stop-color="#00BF63"/>
</linearGradient>
<clipPath id="clip0_241_295">
<rect x="80" y="29" width="72" height="72" rx="17.08" fill="white"/>
</clipPath>
</defs>
</svg>
