<svg width="725" height="587" viewBox="0 0 725 587" fill="none" xmlns="http://www.w3.org/2000/svg">
<path id="logomy-letter-m" d="M125.203 117.872C96.8309 117.997 70.7103 118.749 58.261 120.789C23.5825 126.474 5.22127 146.684 2.50168 176.669C-0.217918 206.653 2.50168 562.225 2.50168 562.225M125.203 117.872C175.862 117.649 233.699 119.424 233.699 119.424C258.178 119.424 300.187 141.086 300.338 183.483C300.489 225.88 300.489 279.034 300.489 279.034M125.203 117.872C125.373 82.2371 125.702 57.4337 126.26 51.281C128.98 21.2968 152.1 7.66647 173.86 3.57913C195.619 -0.508216 235.059 0.855779 256.819 3.57913C278.578 6.30248 424.097 43.1058 424.097 152.136M125.203 117.872C124.542 255.899 126.26 554.922 126.26 563.588C126.26 574.491 119.46 584.032 104.5 585.394C89.5405 586.757 44.661 585.394 25.6214 585.394C6.58177 585.394 3.47639 574.491 2.50168 562.225M2.50168 563.588V562.225M424.399 117.872C396.027 117.997 369.907 118.749 357.457 120.789C322.779 126.474 304.418 146.684 301.698 176.669C298.978 206.653 301.698 562.225 301.698 562.225M424.399 117.872C475.059 117.649 532.895 119.424 532.895 119.424C557.375 119.424 596.814 139.868 599.534 183.483V563.588C600.38 580.606 605.921 584.324 621.294 585.394H701.533C718.951 585.824 723.293 574.493 723.293 563.588V152.136C723.293 43.1058 577.775 6.30248 556.015 3.57913C534.255 0.855779 494.816 -0.508216 473.056 3.57913C451.296 7.66647 428.176 21.2968 425.457 51.281C424.899 57.4337 424.569 82.2371 424.399 117.872ZM424.399 117.872C423.739 255.899 425.457 554.922 425.457 563.588C425.457 574.491 418.657 584.032 403.697 585.394C388.737 586.757 343.857 585.394 324.818 585.394C305.778 585.394 302.673 574.491 301.698 562.225M301.698 563.588V562.225" stroke="url(#paint0_linear_222_279)" stroke-width="2"/>
<defs>
<linearGradient id="paint0_linear_222_279" x1="405.208" y1="657.776" x2="245.055" y2="-95.9565" gradientUnits="userSpaceOnUse">
<stop stop-color="#00FD83"/>
<stop offset="0.837894" stop-color="#00BF63" stop-opacity="0"/>
</linearGradient>
</defs>
</svg>
