<svg width="373" height="584" viewBox="0 0 373 584" fill="none" xmlns="http://www.w3.org/2000/svg">
<path id="logomy-letter-y" d="M124.777 466.768C124.378 490.057 124.29 516.86 125.727 532.756C128.435 562.718 151.457 576.338 173.123 580.423C194.79 584.507 234.062 583.144 255.729 580.423C277.395 577.701 422.293 540.926 422.293 431.976V305.471M124.777 466.768C125.13 446.16 125.727 431.026 125.727 425.911C125.727 415.016 118.956 405.483 104.06 404.121C89.1639 402.76 30.7833 404.121 25.5174 404.121C20.2515 404.121 5.35552 404.121 5.35552 428.635C5.35552 453.149 33.7934 466.768 48.6894 466.768H124.777ZM124.777 466.768H230.15C269.421 466.768 299.039 431.359 299.039 401.397V392.481M299.039 392.481H167.857C105.565 392.481 1.29296 352.983 1.29297 244.034C1.29297 244.034 1.29303 31.0073 1.29303 22.8355C1.29303 14.6638 2.61069 10.6734 6.7097 6.44715C10.0352 3.01838 16.189 1.04522 22.96 1.04522C29.7309 1.04522 98.7942 1.04523 102.857 1.04523C106.919 1.04523 124.524 1.04522 124.524 22.8355C124.524 44.6259 124.524 212.711 124.524 212.711C127.232 256.294 166.503 276.722 190.879 276.722H251.817C276.192 276.722 299.039 276.722 299.039 229.231L297.685 28.2379C297.685 10.5333 300.567 1 323.589 1H395.36C423.798 1 420.939 18.7046 420.939 28.2379L422.293 305.471M299.039 392.481H335.776C387.235 392.481 422.293 348.283 422.293 305.471M299.213 208.011V395.952" stroke="url(#paint0_linear_222_280)" stroke-width="2"/>
<defs>
<linearGradient id="paint0_linear_222_280" x1="196.295" y1="-58.9234" x2="-6.81321" y2="571.576" gradientUnits="userSpaceOnUse">
<stop stop-color="#00FD83"/>
<stop offset="0.912624" stop-color="#00BF63" stop-opacity="0"/>
</linearGradient>
</defs>
</svg>
