<svg viewBox="0 0 211 102" fill="none" xmlns="http://www.w3.org/2000/svg">
<g id="logo-mybank">
<g id="figmy4-letter-m" filter="url(#filter0_i_318_1058)">
<path d="M22.3375 21.1784C17.5434 21.1995 13.1297 21.3267 11.0261 21.6721C5.16629 22.6341 2.06369 26.0543 1.60414 31.1286C1.1446 36.2028 1.60414 96.3766 1.60414 96.3766M22.3375 21.1784C30.8977 21.1407 40.6707 21.441 40.6707 21.441C44.8071 21.441 51.9055 25.1069 51.9311 32.2818C51.9566 39.4567 51.9566 48.4519 51.9566 48.4519M22.3375 21.1784C22.3664 15.1478 22.4219 10.9503 22.5163 9.90911C22.9758 4.83486 26.8825 2.5282 30.5594 1.83649C34.2362 1.14479 40.9005 1.37562 44.5774 1.83649C48.2542 2.29737 72.8432 8.52562 72.8432 26.9769M22.3375 21.1784C22.2259 44.5368 22.5162 95.1406 22.5163 96.6072C22.5163 98.4524 21.3673 100.067 18.8394 100.298C16.3115 100.528 8.72803 100.298 5.5108 100.298C2.29358 100.298 1.76885 98.4523 1.60414 96.3766M1.60414 96.6072V96.3766M72.8943 21.1784C68.1002 21.1995 63.6864 21.3267 61.5828 21.6721C55.723 22.6341 52.6204 26.0543 52.1609 31.1286C51.7013 36.2028 52.1609 96.3766 52.1609 96.3766M72.8943 21.1784C81.4545 21.1407 91.2274 21.441 91.2274 21.441C95.3639 21.441 102.028 24.9007 102.488 32.2818V96.6072C102.631 99.4871 103.567 100.116 106.165 100.298H119.723C122.666 100.37 123.4 98.4528 123.4 96.6072V26.9769C123.4 8.52562 98.8109 2.29737 95.1341 1.83649C91.4573 1.37562 84.7929 1.14479 81.1161 1.83649C77.4393 2.5282 73.5325 4.83486 73.073 9.90911C72.9787 10.9503 72.9231 15.1478 72.8943 21.1784ZM72.8943 21.1784C72.7827 44.5368 73.073 95.1406 73.073 96.6072C73.073 98.4524 71.924 100.067 69.3961 100.298C66.8683 100.528 59.2848 100.298 56.0675 100.298C52.8503 100.298 52.3256 98.4523 52.1609 96.3766M52.1609 96.6072V96.3766" stroke="white" stroke-width="2.8"/>
</g>
<g id="figmy4-letter-y" filter="url(#filter1_i_318_1058)">
<path d="M159.225 79.8283C159.158 83.7499 159.143 88.2631 159.385 90.9398C159.842 95.9849 163.724 98.2783 167.378 98.9661C171.032 99.6538 177.655 99.4243 181.309 98.9661C184.963 98.5078 209.4 92.3153 209.4 73.9699V52.6684M159.225 79.8283C159.285 76.3582 159.385 73.81 159.385 72.9487C159.385 71.114 158.243 69.5088 155.731 69.2795C153.219 69.0503 143.373 69.2795 142.485 69.2795C141.597 69.2795 139.085 69.2795 139.085 73.4073C139.085 77.5351 143.881 79.8283 146.393 79.8283H159.225ZM159.225 79.8283H176.996C183.619 79.8283 188.614 73.866 188.614 68.8209V67.3195M188.614 67.3195H166.49C155.985 67.3195 138.4 60.6687 138.4 42.3233C138.4 42.3233 138.4 6.4528 138.4 5.0768C138.4 3.70079 138.622 3.02888 139.313 2.31724C139.874 1.73989 140.912 1.40764 142.054 1.40764C143.196 1.40764 154.843 1.40764 155.528 1.40764C156.213 1.40764 159.182 1.40764 159.182 5.0768C159.182 8.74596 159.182 37.0489 159.182 37.0489C159.639 44.3876 166.262 47.8274 170.373 47.8274H180.65C184.761 47.8274 188.614 47.8274 188.614 39.8307L188.385 5.98647C188.385 3.00528 188.871 1.40002 192.754 1.40002H204.858C209.654 1.40002 209.172 4.38122 209.172 5.98647L209.4 52.6684M188.614 67.3195H194.809C203.488 67.3195 209.4 59.8772 209.4 52.6684M188.643 36.2575V67.904" stroke="white" stroke-width="2.8"/>
</g>
</g>
<defs>
<filter id="filter0_i_318_1058" x="0" y="-1.33988" width="126.14" height="103.14" filterUnits="userSpaceOnUse" color-interpolation-filters="sRGB">
<feFlood flood-opacity="0" result="BackgroundImageFix"/>
<feBlend mode="normal" in="SourceGraphic" in2="BackgroundImageFix" result="shape"/>
<feColorMatrix in="SourceAlpha" type="matrix" values="0 0 0 0 0 0 0 0 0 0 0 0 0 0 0 0 0 0 127 0" result="hardAlpha"/>
<feOffset dx="1.34" dy="-1.34"/>
<feGaussianBlur stdDeviation="2.24"/>
<feComposite in2="hardAlpha" operator="arithmetic" k2="-1" k3="1"/>
<feColorMatrix type="matrix" values="0 0 0 0 0.6 0 0 0 0 1 0 0 0 0 0.807843 0 0 0 0.5 0"/>
<feBlend mode="normal" in2="shape" result="effect1_innerShadow_318_1058"/>
</filter>
<filter id="filter1_i_318_1058" x="137" y="-1.34" width="75.1398" height="102.14" filterUnits="userSpaceOnUse" color-interpolation-filters="sRGB">
<feFlood flood-opacity="0" result="BackgroundImageFix"/>
<feBlend mode="normal" in="SourceGraphic" in2="BackgroundImageFix" result="shape"/>
<feColorMatrix in="SourceAlpha" type="matrix" values="0 0 0 0 0 0 0 0 0 0 0 0 0 0 0 0 0 0 127 0" result="hardAlpha"/>
<feOffset dx="1.34" dy="-1.34"/>
<feGaussianBlur stdDeviation="2.24"/>
<feComposite in2="hardAlpha" operator="arithmetic" k2="-1" k3="1"/>
<feColorMatrix type="matrix" values="0 0 0 0 0.6 0 0 0 0 1 0 0 0 0 0.807843 0 0 0 0.5 0"/>
<feBlend mode="normal" in2="shape" result="effect1_innerShadow_318_1058"/>
</filter>
</defs>
</svg>
