<svg width="722" height="458" viewBox="0 0 722 458" fill="none" xmlns="http://www.w3.org/2000/svg">
<g id="mybank-front">
<g id="mybank-front_2" clip-path="url(#clip0_327_524)">
<g id="Rectangle 968" filter="url(#filter0_i_327_524)">
<rect width="722" height="458" rx="25" fill="url(#paint0_linear_327_524)"/>
</g>
<text id="wesley nascimento" fill="#FEFBFF" xml:space="preserve" style="white-space: pre" font-family="Sora" font-size="24" font-weight="600" letter-spacing="0.1em"><tspan x="221" y="363.16">WESLEY NASCIMENTO&#10;</tspan></text>
<circle id="Ellipse 10" cx="581.889" cy="86.4971" r="45.7505" fill="#E71924"/>
<circle id="Ellipse 11" cx="637.647" cy="86.4971" r="45.7505" fill="#F99F19"/>
<path id="Intersect" fill-rule="evenodd" clip-rule="evenodd" d="M609.768 122.595C620.636 114.23 627.64 101.092 627.64 86.3172C627.64 71.5427 620.636 58.404 609.768 50.0396C598.9 58.404 591.897 71.5427 591.897 86.3172C591.897 101.092 598.9 114.23 609.768 122.595Z" fill="#F26520"/>
<g id="Group 301">
<rect id="Rectangle 344" x="80.4209" y="156.195" width="97.9347" height="69.3406" rx="6.07624" fill="url(#paint1_linear_327_524)" stroke="#211F21" stroke-width="2.14455"/>
<path id="Vector 9" d="M80.7783 178.713H110.087" stroke="#211F21" stroke-width="2" stroke-linecap="round"/>
<path id="Vector 10" d="M80.7783 200.873H109.445" stroke="#211F21" stroke-width="2" stroke-linecap="round"/>
<path id="Vector 11" d="M149.404 200.873H177.998" stroke="#211F21" stroke-width="2" stroke-linecap="round"/>
<path id="Vector 12" d="M148.975 179.428H177.998" stroke="#211F21" stroke-width="2" stroke-linecap="round"/>
<circle id="Ellipse 12" cx="129.388" cy="166.561" r="2.14455" fill="#211F21"/>
<g id="Vector 13">
<path d="M231.053 205.824C236.325 192.59 236.926 185.119 231.053 171.645C230.43 170.215 231.053 169.024 231.768 168.786C232.483 168.547 233.589 168.786 234.27 170.215C241.188 184.73 240.767 192.87 234.627 207.387C233.912 208.817 232.575 208.998 231.768 208.46C230.824 207.831 230.608 206.941 231.053 205.824Z" fill="#FEFBFF"/>
<path d="M223.547 172.717C222.832 173.075 222.375 174.43 223.19 175.934C227.999 185.94 227.801 191.662 223.19 202.026C222.686 203.071 222.998 204.226 223.905 204.528C224.977 204.886 225.913 204.125 226.406 203.098C231.701 192.084 231.84 185.756 226.406 174.147C225.905 173.075 224.619 172.181 223.547 172.717Z" fill="#FEFBFF"/>
<path d="M216.399 177.364C215.326 177.721 215.136 178.908 215.684 180.223C218.53 187.063 218.979 190.898 215.684 197.737C215.041 198.929 214.83 200.193 216.041 200.596C217.252 201 218.126 200.363 218.543 199.524C222.766 191.149 221.82 186.454 218.543 178.079C218.263 177.364 217.471 177.006 216.399 177.364Z" fill="#FEFBFF"/>
<path d="M208.893 180.223C207.82 180.938 207.668 182.022 208.535 183.797C210.344 187.564 210.303 189.68 208.535 193.448C207.713 195.11 207.463 197.022 208.893 197.38C210.322 197.737 210.957 197.229 211.752 195.235C213.578 189.987 213.756 187.02 211.752 181.653C211.291 180.261 210.322 179.508 208.893 180.223Z" fill="#FEFBFF"/>
</g>
<path id="Vector 14" d="M145.115 170.849C142.372 161.508 137.251 156.91 129.03 156.91C119.023 156.91 116.194 164.53 110.087 178.355C113.998 187.507 114.039 192.437 110.087 200.873C116.494 219.254 121.24 224.915 129.388 224.821C140.111 224.821 143.163 215.733 149.046 200.873C145.952 192.497 145.622 187.875 148.5 179.5" stroke="#211F21" stroke-width="2" stroke-linecap="round"/>
</g>
</g>
</g>
<defs>
<filter id="filter0_i_327_524" x="0" y="0" width="725" height="461" filterUnits="userSpaceOnUse" color-interpolation-filters="sRGB">
<feFlood flood-opacity="0" result="BackgroundImageFix"/>
<feBlend mode="normal" in="SourceGraphic" in2="BackgroundImageFix" result="shape"/>
<feColorMatrix in="SourceAlpha" type="matrix" values="0 0 0 0 0 0 0 0 0 0 0 0 0 0 0 0 0 0 127 0" result="hardAlpha"/>
<feOffset dx="3" dy="3"/>
<feGaussianBlur stdDeviation="3"/>
<feComposite in2="hardAlpha" operator="arithmetic" k2="-1" k3="1"/>
<feColorMatrix type="matrix" values="0 0 0 0 1 0 0 0 0 1 0 0 0 0 1 0 0 0 0.25 0"/>
<feBlend mode="normal" in2="shape" result="effect1_innerShadow_327_524"/>
</filter>
<linearGradient id="paint0_linear_327_524" x1="650.503" y1="32.6162" x2="372.575" y2="537.261" gradientUnits="userSpaceOnUse">
<stop stop-color="#00FD83"/>
<stop offset="0.760455" stop-color="#00BF63"/>
</linearGradient>
<linearGradient id="paint1_linear_327_524" x1="171" y1="165" x2="87" y2="221" gradientUnits="userSpaceOnUse">
<stop stop-color="#F4F4F4"/>
<stop offset="1" stop-color="#D6D6D6"/>
</linearGradient>
<clipPath id="clip0_327_524">
<rect width="722" height="458" fill="white"/>
</clipPath>
</defs>
</svg>
