<svg width="722" height="458" viewBox="0 0 722 458" fill="none" xmlns="http://www.w3.org/2000/svg">
<g id="mybank" clip-path="url(#clip0_328_647)">
<path id="Rectangle 407" d="M0 25.0198C0 11.2017 11.2017 0 25.0198 0H696.98C710.798 0 722 11.2017 722 25.0198V432.485C722 446.303 710.798 457.505 696.98 457.505H25.0198C11.2017 457.505 0 446.303 0 432.485V25.0198Z" fill="url(#paint0_linear_328_647)"/>
<text id="WESLEY NASCIMENTO" fill="#FBF9FC" xml:space="preserve" style="white-space: pre" font-family="Sora" font-size="25.7347" letter-spacing="0.1em"><tspan x="216" y="359.75">WESLEY NASCIMENTO</tspan></text>
<circle id="Ellipse 10" cx="581.889" cy="86.4966" r="45.7505" fill="#E71924"/>
<circle id="Ellipse 11" cx="637.647" cy="86.4966" r="45.7505" fill="#F99F19"/>
<path id="Intersect" fill-rule="evenodd" clip-rule="evenodd" d="M609.768 122.594C620.636 114.23 627.64 101.091 627.64 86.3167C627.64 71.5423 620.636 58.4035 609.768 50.0391C598.9 58.4035 591.897 71.5423 591.897 86.3167C591.897 101.091 598.9 114.23 609.768 122.594Z" fill="#F26520"/>
<rect id="Rectangle 344" x="80.4209" y="156.195" width="97.9347" height="69.3406" rx="6.07624" fill="url(#paint1_linear_328_647)" stroke="#211F21" stroke-width="2.14455"/>
<path id="Vector 9" d="M80.7783 178.713H110.087" stroke="#211F21" stroke-width="2.14455"/>
<path id="Vector 10" d="M80.7783 200.873H110.445" stroke="#211F21" stroke-width="2.14455"/>
<path id="Vector 11" d="M149.404 200.873H177.998" stroke="#211F21" stroke-width="2.14455"/>
<path id="Vector 12" d="M147.974 179.428H177.998" stroke="#211F21" stroke-width="2.14455"/>
<circle id="Ellipse 12" cx="129.388" cy="166.561" r="2.14455" fill="#211F21"/>
<g id="Vector 13">
<path d="M219.053 205.824C224.325 192.59 224.926 185.119 219.053 171.645C218.43 170.215 219.053 169.024 219.768 168.786C220.483 168.547 221.589 168.786 222.27 170.215C229.188 184.73 228.767 192.87 222.627 207.387C221.912 208.817 220.575 208.998 219.768 208.46C218.824 207.831 218.608 206.941 219.053 205.824Z" fill="#FBF9FC"/>
<path d="M211.547 172.717C210.832 173.075 210.375 174.43 211.19 175.934C215.999 185.94 215.801 191.662 211.19 202.026C210.686 203.071 210.998 204.226 211.905 204.528C212.977 204.886 213.913 204.125 214.406 203.098C219.701 192.084 219.84 185.756 214.406 174.147C213.905 173.075 212.619 172.181 211.547 172.717Z" fill="#FBF9FC"/>
<path d="M204.399 177.364C203.326 177.721 203.136 178.908 203.684 180.223C206.53 187.063 206.979 190.898 203.684 197.737C203.041 198.929 202.83 200.193 204.041 200.596C205.252 201 206.126 200.363 206.543 199.524C210.766 191.149 209.82 186.454 206.543 178.079C206.263 177.364 205.471 177.006 204.399 177.364Z" fill="#FBF9FC"/>
<path d="M196.893 180.223C195.82 180.938 195.668 182.022 196.535 183.797C198.344 187.564 198.303 189.68 196.535 193.448C195.713 195.11 195.463 197.022 196.893 197.38C198.322 197.737 198.957 197.229 199.752 195.235C201.578 189.987 201.756 187.02 199.752 181.653C199.291 180.261 198.322 179.508 196.893 180.223Z" fill="#FBF9FC"/>
</g>
<path id="Vector 14" d="M145.115 170.85C142.372 161.509 137.251 156.91 129.03 156.91C119.023 156.91 116.194 164.531 110.087 178.356C113.998 187.507 114.039 192.437 110.087 200.874C116.494 219.255 121.24 224.916 129.388 224.821C140.111 224.821 143.163 215.733 149.046 200.874C145.952 192.498 146.168 187.803 149.046 179.428" stroke="#211F21" stroke-width="2.14455"/>
<path id="Union" fill-rule="evenodd" clip-rule="evenodd" d="M176.199 321C174.998 321 173.964 321.239 173.323 322.058C172.736 322.807 172.692 323.806 172.692 324.633L172.692 324.639L172.823 344.059V344.063C172.822 346.236 172.296 346.954 171.862 347.248C171.612 347.416 171.282 347.526 170.829 347.587C170.368 347.648 169.856 347.65 169.252 347.65H163.353C162.415 347.65 161.091 347.243 159.978 346.354C158.897 345.491 158.048 344.203 157.929 342.43V342.416V342.28V341.76V339.891V334.076L157.929 324.11C157.929 323.448 157.794 322.878 157.529 322.404C157.262 321.927 156.892 321.603 156.513 321.393C155.809 321.003 155.069 321.004 154.847 321.004L154.832 321.004L151.063 321.004L147.097 321.004C146.303 321.004 145.392 321.227 144.807 321.83C144.527 322.118 144.303 322.442 144.164 322.861C144.033 323.256 144 323.673 144 324.11L144 335.096V342.261V344.604V345.259V345.431V345.475V345.486V345.489V345.49C144 345.49 144 345.49 145 345.49H144C144 351.131 146.726 355.006 150.231 357.435C153.698 359.837 157.934 360.838 161.124 360.838H172.82C172.776 361.944 172.204 363.219 171.2 364.245C170.165 365.302 168.745 366.018 167.154 366.018H157.974C157.988 365.369 158.004 364.792 158.017 364.315L158.017 364.314C158.034 363.727 158.046 363.294 158.046 363.069C158.046 362.335 157.815 361.589 157.278 360.998C156.736 360.402 155.963 360.052 155.039 359.967C154.255 359.896 152.421 359.898 150.787 359.914C149.735 359.924 148.756 359.941 148.105 359.952H148.105C147.713 359.958 147.441 359.963 147.345 359.963L147.32 359.963C147.049 359.962 146.291 359.961 145.606 360.439C144.828 360.982 144.393 361.942 144.393 363.332C144.393 364.946 145.338 366.135 146.366 366.875C147.377 367.604 148.626 368.018 149.588 368.018H155.939C155.916 370.002 155.926 372.124 156.05 373.486C156.369 377.008 159.12 378.548 161.449 378.986C163.696 379.409 167.618 379.263 169.755 378.995C170.927 378.849 175.091 377.854 178.989 375.539C182.886 373.225 186.754 369.438 186.754 363.655L186.754 351.428L186.754 351.423L186.623 324.633V324.63C186.623 324.594 186.624 324.542 186.626 324.48V324.479C186.63 324.293 186.636 324.014 186.622 323.774C186.601 323.416 186.534 322.962 186.31 322.519C185.799 321.511 184.731 321 183.147 321H176.199ZM145 345.49C146 345.49 146 345.49 146 345.49V345.489V345.486V345.475V345.431V345.259V344.604V342.261V335.096L146 324.11C146 323.758 146.03 323.588 146.063 323.49C146.087 323.416 146.125 323.344 146.242 323.223C146.3 323.163 146.581 323.004 147.097 323.004L151.063 323.004L154.832 323.004C155.025 323.004 155.314 323.015 155.543 323.142C155.639 323.195 155.72 323.267 155.784 323.382C155.851 323.5 155.929 323.72 155.929 324.11L155.929 334.076V339.891V341.76V342.28V342.416V342.451V342.46V342.462V342.462C155.929 342.463 155.929 342.463 156.929 342.463H155.929V342.494L155.931 342.525C156.082 344.949 157.262 346.745 158.73 347.917C160.174 349.069 161.931 349.65 163.353 349.65H169.252H169.284C169.851 349.65 170.488 349.65 171.093 349.569C171.669 349.492 172.279 349.336 172.84 348.996V358.838H161.124C158.284 358.838 154.458 357.931 151.37 355.791C148.321 353.678 146 350.38 146 345.49H145ZM174.84 342.008H174.809L174.692 324.633V324.629C174.692 323.747 174.787 323.431 174.897 323.292C174.952 323.221 175.172 323 176.199 323H183.147C184.311 323 184.484 323.342 184.525 323.422L184.525 323.422C184.576 323.522 184.612 323.669 184.625 323.891C184.635 324.051 184.631 324.176 184.628 324.324V324.324L184.628 324.325C184.626 324.414 184.623 324.513 184.623 324.633L184.623 324.638L184.754 351.428V351.43C184.753 355.087 181.739 358.838 177.379 358.838H174.84V342.008ZM177.379 360.838C180.533 360.838 183.107 359.32 184.754 357.169V363.655C184.754 368.403 181.609 371.658 177.968 373.82C174.329 375.981 170.431 376.895 169.506 377.011C167.448 377.269 163.766 377.387 161.819 377.021C159.953 376.669 158.247 375.576 158.042 373.306C157.927 372.043 157.916 370 157.939 368.018H167.154C169.365 368.018 171.28 367.023 172.629 365.644C173.931 364.315 174.778 362.554 174.821 360.838H177.379ZM156.019 364.225C156.006 364.708 155.989 365.311 155.973 366.018H149.588C149.108 366.018 148.26 365.774 147.534 365.252C146.825 364.742 146.393 364.088 146.393 363.332C146.393 362.354 146.68 362.129 146.75 362.079C146.891 361.981 147.081 361.963 147.345 361.963C147.443 361.963 147.736 361.958 148.152 361.951L148.153 361.951C148.82 361.94 149.805 361.924 150.807 361.914C152.487 361.897 154.199 361.899 154.857 361.959C155.376 362.006 155.651 362.182 155.798 362.343C155.949 362.509 156.046 362.75 156.046 363.069C156.046 363.286 156.035 363.679 156.019 364.225ZM92.9084 321.258C90.7583 320.989 86.8133 320.843 84.5528 321.268C82.2113 321.708 79.4454 323.255 79.1249 326.794C79.0717 327.382 79.0411 329.447 79.0236 332.36C76.666 332.384 74.5065 332.462 73.3635 332.649C71.523 332.952 70.0232 333.656 68.9421 334.768C67.8569 335.884 67.2701 337.331 67.1213 338.974C67.0503 339.758 67.0182 342.524 67.006 346.142C66.9936 349.793 67.0018 354.386 67.0183 358.886C67.0348 363.387 67.0596 367.797 67.0802 371.081C67.0905 372.723 67.0997 374.084 67.1064 375.034L67.1144 376.136L67.1165 376.425L67.1171 376.499L67.1172 376.518L67.1172 376.521V376.649H67.1247C67.1753 377.253 67.2921 378.052 67.7885 378.698C68.3553 379.436 69.2385 379.768 70.3597 379.768C70.9064 379.768 71.6684 379.779 72.5165 379.792H72.5166C73.0923 379.801 73.7077 379.81 74.3224 379.817C75.8044 379.833 77.3135 379.835 78.1012 379.763C79.0291 379.679 79.8058 379.326 80.3494 378.729C80.8889 378.136 81.1209 377.387 81.1209 376.649C81.1209 376.518 81.117 375.731 81.1106 374.444L81.1106 374.443C81.0764 367.497 80.9702 345.988 81.014 334.351C83.1601 334.352 85.3595 334.385 87.1025 334.42C88.1084 334.44 88.961 334.461 89.562 334.477C89.8625 334.485 90.1 334.491 90.2623 334.496L90.4477 334.501L90.4951 334.503L90.507 334.503L90.51 334.503L90.5107 334.503L90.5108 334.503L90.5416 333.504L90.5109 334.503L90.5262 334.504H90.5416C91.4818 334.504 92.8795 334.94 94.0382 335.855C95.1701 336.75 95.9991 338.038 96.0051 339.73C96.0124 341.788 96.0161 344.107 96.0179 345.913C96.0188 346.815 96.0193 347.589 96.0195 348.137L96.0197 348.778L96.0198 348.949L96.0198 348.993V349.004V349.007V349.008V349.008H96.0201C96.0179 352.059 96.0257 355.499 96.0381 358.886C96.0546 363.387 96.0793 367.797 96.0999 371.081C96.1102 372.723 96.1195 374.084 96.1262 375.034L96.1341 376.136L96.1363 376.425L96.1368 376.499L96.137 376.518L96.137 376.521V376.649H96.1445C96.1951 377.253 96.3118 378.052 96.8082 378.698C97.375 379.436 98.2583 379.768 99.3794 379.768C99.9261 379.768 100.688 379.779 101.536 379.792H101.536C102.112 379.801 102.727 379.81 103.342 379.817C104.824 379.833 106.333 379.835 107.121 379.763C108.049 379.679 108.826 379.326 109.369 378.729C109.909 378.136 110.141 377.387 110.141 376.649C110.141 376.518 110.137 375.731 110.13 374.443C110.096 367.497 109.99 345.988 110.034 334.351C112.18 334.352 114.379 334.385 116.122 334.42C117.128 334.44 117.981 334.461 118.582 334.477C118.882 334.485 119.12 334.491 119.282 334.496L119.467 334.501L119.515 334.503L119.527 334.503L119.53 334.503L119.53 334.503L119.531 334.503L119.546 334.504H119.561C120.507 334.504 121.84 334.913 122.961 335.808C124.05 336.677 124.905 337.974 125.025 339.758V376.649V376.674L125.026 376.699C125.07 377.576 125.236 378.428 125.868 379.019C126.479 379.591 127.315 379.713 128.066 379.765L128.101 379.768H128.135H135.906C136.982 379.791 137.84 379.442 138.393 378.74C138.907 378.085 139.028 377.282 139.028 376.649V336.681C139.028 330.868 135.138 327.06 131.218 324.733C127.296 322.406 123.107 321.406 121.928 321.258C119.778 320.989 115.833 320.843 113.573 321.268C111.231 321.708 108.465 323.255 108.145 326.794C108.107 327.216 108.08 328.395 108.062 330.102C106.564 327.791 104.386 326.032 102.198 324.733C98.2766 322.406 94.0868 321.406 92.9084 321.258ZM87.1426 332.42C85.3957 332.385 83.1856 332.352 81.0237 332.351C81.0416 329.416 81.0725 327.463 81.1168 326.974C81.3239 324.688 83.043 323.587 84.9225 323.233C86.8831 322.864 90.5887 322.983 92.6596 323.243C93.5918 323.36 97.5143 324.279 101.177 326.453C103.615 327.9 105.833 329.834 107.045 332.374C105.088 332.409 103.362 332.489 102.383 332.649C100.543 332.952 99.0429 333.656 97.9618 334.768C97.5615 335.179 97.2289 335.636 96.9612 336.131C96.498 335.404 95.9137 334.788 95.2782 334.286C93.8079 333.124 91.9893 332.508 90.5576 332.504L90.5556 332.504L90.5071 332.502L90.3196 332.497C90.1559 332.492 89.9167 332.485 89.6145 332.477C89.0102 332.461 88.1533 332.441 87.1426 332.42ZM102.707 334.623C103.643 334.469 105.522 334.392 107.745 334.364C107.916 335.094 108.009 335.866 108.009 336.681H108.027C108.003 348.705 108.099 368.087 108.131 374.517L108.131 374.534C108.137 375.772 108.141 376.526 108.141 376.649C108.141 376.971 108.043 377.215 107.89 377.383C107.741 377.547 107.462 377.724 106.939 377.772C106.276 377.832 104.883 377.834 103.364 377.817C102.774 377.811 102.169 377.802 101.596 377.793L101.595 377.793C100.73 377.78 99.9379 377.768 99.3794 377.768C98.6539 377.768 98.4632 377.57 98.394 377.48C98.2718 377.321 98.1836 377.032 98.1367 376.472L98.1362 376.41L98.1341 376.121L98.1261 375.02C98.1194 374.07 98.1102 372.71 98.0999 371.068C98.0793 367.785 98.0545 363.378 98.0381 358.879C98.0216 354.38 98.0133 349.793 98.0257 346.148C98.0382 342.471 98.072 339.827 98.1329 339.154C98.2479 337.885 98.6834 336.894 99.3955 336.162C100.112 335.426 101.184 334.873 102.707 334.623ZM116.162 332.42C114.415 332.385 112.205 332.352 110.043 332.351C110.061 329.416 110.092 327.463 110.137 326.974L109.141 326.884L110.137 326.974C110.344 324.688 112.063 323.587 113.942 323.233C115.903 322.864 119.608 322.983 121.679 323.243C122.612 323.36 126.534 324.279 130.197 326.453C133.861 328.628 137.028 331.904 137.028 336.681V376.649C137.028 377.075 136.939 377.353 136.821 377.503C136.743 377.602 136.55 377.783 135.943 377.768L135.93 377.768H135.918H128.171C127.459 377.715 127.286 377.607 127.235 377.559C127.205 377.531 127.065 377.379 127.025 376.624V339.726V339.695L127.023 339.664C126.871 337.227 125.685 335.423 124.208 334.244C122.763 333.091 121.003 332.508 119.577 332.504L119.575 332.504L119.527 332.502L119.339 332.497C119.176 332.492 118.936 332.485 118.634 332.477C118.03 332.461 117.173 332.441 116.162 332.42ZM73.6875 334.623C74.6637 334.463 76.6655 334.385 79.014 334.36C78.9703 346.038 79.077 367.653 79.1109 374.517L79.1109 374.517C79.1171 375.765 79.1209 376.525 79.1209 376.649C79.1209 376.971 79.023 377.215 78.87 377.383C78.7211 377.547 78.4426 377.724 77.9195 377.772C77.2562 377.832 75.8633 377.834 74.3444 377.817C73.7545 377.811 73.1495 377.802 72.5764 377.793L72.5751 377.793C71.7103 377.78 70.9181 377.768 70.3597 377.768C69.6341 377.768 69.4434 377.57 69.3743 377.48C69.252 377.321 69.1639 377.032 69.1169 376.472L69.1165 376.41L69.1143 376.121L69.1064 375.02C69.0997 374.07 69.0904 372.71 69.0801 371.068C69.0595 367.785 69.0348 363.378 69.0183 358.879C69.0018 354.38 68.9936 349.793 69.0059 346.148C69.0184 342.471 69.0523 339.827 69.1132 339.154C69.2281 337.885 69.6637 336.894 70.3758 336.162C71.092 335.426 72.1644 334.873 73.6875 334.623Z" fill="white"/>
</g>
<defs>
<linearGradient id="paint0_linear_328_647" x1="181.502" y1="-45.2739" x2="376.177" y2="464.348" gradientUnits="userSpaceOnUse">
<stop offset="0.245176" stop-color="#00FD83"/>
<stop offset="1" stop-color="#00BF63"/>
</linearGradient>
<linearGradient id="paint1_linear_328_647" x1="129.388" y1="155.123" x2="129.388" y2="226.608" gradientUnits="userSpaceOnUse">
<stop stop-color="#EEE9F0"/>
<stop offset="1" stop-color="#D3B5DB"/>
</linearGradient>
<clipPath id="clip0_328_647">
<rect width="722" height="458" fill="white"/>
</clipPath>
</defs>
</svg>
