<svg width="722" height="458" viewBox="0 0 722 458" fill="none" xmlns="http://www.w3.org/2000/svg">
<g id="nubank-front" clip-path="url(#clip0_223_306)">
<g id="Rectangle 968" filter="url(#filter0_i_223_306)">
<rect x="0.000976562" width="722" height="458" rx="25" fill="url(#paint0_linear_223_306)"/>
</g>
<path id="wesley nascimento" d="M226.041 363L221.577 345.48H225.105L228.729 360.72L227.793 360.168H230.193L229.137 360.72L231.993 346.152H234.921L231.369 363H226.041ZM236.505 363L232.641 346.152H235.689L238.977 360.72L237.945 360.168H240.297L239.385 360.72L242.577 345.48H245.913L241.929 363H236.505ZM251.038 363V345.48H254.374V363H251.038ZM253.894 363V360.12H261.838V363H253.894ZM253.894 355.536V352.656H261.214V355.536H253.894ZM253.894 348.36V345.48H261.646V348.36H253.894ZM273.57 363.456C272.018 363.456 270.706 363.208 269.634 362.712C268.578 362.216 267.77 361.536 267.21 360.672C266.65 359.792 266.37 358.8 266.37 357.696H269.706C269.706 358.16 269.834 358.616 270.09 359.064C270.346 359.496 270.754 359.848 271.314 360.12C271.89 360.392 272.642 360.528 273.57 360.528C274.402 360.528 275.098 360.408 275.658 360.168C276.218 359.928 276.634 359.616 276.906 359.232C277.178 358.832 277.314 358.384 277.314 357.888C277.314 357.264 277.05 356.768 276.522 356.4C275.994 356.016 275.178 355.776 274.074 355.68L272.538 355.56C270.858 355.416 269.514 354.896 268.506 354C267.514 353.088 267.018 351.888 267.018 350.4C267.018 349.28 267.282 348.32 267.81 347.52C268.338 346.704 269.074 346.08 270.018 345.648C270.978 345.2 272.098 344.976 273.378 344.976C274.706 344.976 275.85 345.208 276.81 345.672C277.77 346.136 278.514 346.792 279.042 347.64C279.57 348.472 279.834 349.456 279.834 350.592H276.498C276.498 350.112 276.378 349.672 276.138 349.272C275.914 348.856 275.57 348.528 275.106 348.288C274.658 348.032 274.082 347.904 273.378 347.904C272.706 347.904 272.146 348.016 271.698 348.24C271.25 348.464 270.914 348.768 270.69 349.152C270.466 349.536 270.354 349.952 270.354 350.4C270.354 350.944 270.554 351.424 270.954 351.84C271.354 352.24 271.986 352.472 272.85 352.536L274.386 352.68C275.634 352.776 276.73 353.04 277.674 353.472C278.618 353.904 279.346 354.488 279.858 355.224C280.386 355.96 280.65 356.848 280.65 357.888C280.65 358.992 280.362 359.968 279.786 360.816C279.21 361.648 278.386 362.296 277.314 362.76C276.258 363.224 275.01 363.456 273.57 363.456ZM286.166 363V345.48H289.574V363H286.166ZM289.094 363V360H296.654V363H289.094ZM301.831 363V345.48H305.167V363H301.831ZM304.687 363V360.12H312.631V363H304.687ZM304.687 355.536V352.656H312.007V355.536H304.687ZM304.687 348.36V345.48H312.439V348.36H304.687ZM321.888 356.304L316.608 345.48H320.112L324.144 353.952L323.376 353.712H325.656L324.84 353.952L328.512 345.48H331.824L326.952 356.304H321.888ZM322.752 363V355.776H326.088V363H322.752ZM344.234 363V345.48H349.826L357.194 360.168H357.986L357.506 360.6V345.48H360.722V363H355.106L347.738 348.312H346.922L347.402 347.88V363H344.234ZM365.719 363L371.695 345.48H377.263L383.407 363H379.903L374.695 347.808L375.919 348.336H372.919L374.167 347.808L369.127 363H365.719ZM369.895 358.344L370.975 355.464H378.079L379.135 358.344H369.895ZM394.268 363.456C392.716 363.456 391.404 363.208 390.332 362.712C389.276 362.216 388.468 361.536 387.908 360.672C387.348 359.792 387.068 358.8 387.068 357.696H390.404C390.404 358.16 390.532 358.616 390.788 359.064C391.044 359.496 391.452 359.848 392.012 360.12C392.588 360.392 393.34 360.528 394.268 360.528C395.1 360.528 395.796 360.408 396.356 360.168C396.916 359.928 397.332 359.616 397.604 359.232C397.876 358.832 398.012 358.384 398.012 357.888C398.012 357.264 397.748 356.768 397.22 356.4C396.692 356.016 395.876 355.776 394.772 355.68L393.236 355.56C391.556 355.416 390.212 354.896 389.204 354C388.212 353.088 387.716 351.888 387.716 350.4C387.716 349.28 387.98 348.32 388.508 347.52C389.036 346.704 389.772 346.08 390.716 345.648C391.676 345.2 392.796 344.976 394.076 344.976C395.404 344.976 396.548 345.208 397.508 345.672C398.468 346.136 399.212 346.792 399.74 347.64C400.268 348.472 400.532 349.456 400.532 350.592H397.196C397.196 350.112 397.076 349.672 396.836 349.272C396.612 348.856 396.268 348.528 395.804 348.288C395.356 348.032 394.78 347.904 394.076 347.904C393.404 347.904 392.844 348.016 392.396 348.24C391.948 348.464 391.612 348.768 391.388 349.152C391.164 349.536 391.052 349.952 391.052 350.4C391.052 350.944 391.252 351.424 391.652 351.84C392.052 352.24 392.684 352.472 393.548 352.536L395.084 352.68C396.332 352.776 397.428 353.04 398.372 353.472C399.316 353.904 400.044 354.488 400.556 355.224C401.084 355.96 401.348 356.848 401.348 357.888C401.348 358.992 401.06 359.968 400.484 360.816C399.908 361.648 399.084 362.296 398.012 362.76C396.956 363.224 395.708 363.456 394.268 363.456ZM414.76 363.456C413.176 363.456 411.816 363.176 410.68 362.616C409.544 362.056 408.616 361.328 407.896 360.432C407.192 359.536 406.672 358.56 406.336 357.504C406 356.448 405.832 355.432 405.832 354.456V353.928C405.832 352.84 406 351.768 406.336 350.712C406.688 349.656 407.224 348.696 407.944 347.832C408.664 346.968 409.576 346.28 410.68 345.768C411.8 345.24 413.12 344.976 414.64 344.976C416.224 344.976 417.6 345.264 418.768 345.84C419.952 346.4 420.896 347.2 421.6 348.24C422.304 349.264 422.728 350.464 422.872 351.84H419.44C419.312 351.04 419.024 350.368 418.576 349.824C418.144 349.264 417.592 348.848 416.92 348.576C416.248 348.288 415.488 348.144 414.64 348.144C413.776 348.144 413.008 348.296 412.336 348.6C411.664 348.888 411.104 349.304 410.656 349.848C410.208 350.392 409.864 351.032 409.624 351.768C409.4 352.504 409.288 353.32 409.288 354.216C409.288 355.08 409.4 355.88 409.624 356.616C409.864 357.352 410.216 358 410.68 358.56C411.144 359.104 411.712 359.528 412.384 359.832C413.072 360.136 413.864 360.288 414.76 360.288C416.072 360.288 417.176 359.968 418.072 359.328C418.984 358.672 419.536 357.76 419.728 356.592H423.16C423 357.84 422.576 358.984 421.888 360.024C421.2 361.064 420.256 361.896 419.056 362.52C417.856 363.144 416.424 363.456 414.76 363.456ZM428.484 363V345.48H431.892V363H428.484ZM438.664 363V345.48H443.32L447.712 355.944H448.144L452.512 345.48H457.24V363H453.856V348.048L454.288 348.096L449.56 359.424H446.08L441.328 348.096L441.784 348.048V363H438.664ZM463.963 363V345.48H467.299V363H463.963ZM466.819 363V360.12H474.763V363H466.819ZM466.819 355.536V352.656H474.139V355.536H466.819ZM466.819 348.36V345.48H474.571V348.36H466.819ZM480.659 363V345.48H486.251L493.619 360.168H494.411L493.931 360.6V345.48H497.147V363H491.531L484.163 348.312H483.347L483.827 347.88V363H480.659ZM507.328 363V348H510.736V363H507.328ZM502.264 348.48V345.48H515.8V348.48H502.264ZM528.637 363.456C527.053 363.456 525.677 363.176 524.509 362.616C523.357 362.056 522.397 361.328 521.629 360.432C520.877 359.52 520.309 358.544 519.925 357.504C519.557 356.448 519.373 355.432 519.373 354.456V353.928C519.373 352.856 519.565 351.792 519.949 350.736C520.333 349.664 520.909 348.696 521.677 347.832C522.461 346.968 523.429 346.28 524.581 345.768C525.733 345.24 527.085 344.976 528.637 344.976C530.173 344.976 531.517 345.24 532.669 345.768C533.821 346.28 534.781 346.968 535.549 347.832C536.333 348.696 536.917 349.664 537.301 350.736C537.685 351.792 537.877 352.856 537.877 353.928V354.456C537.877 355.432 537.685 356.448 537.301 357.504C536.933 358.544 536.365 359.52 535.597 360.432C534.845 361.328 533.885 362.056 532.717 362.616C531.565 363.176 530.205 363.456 528.637 363.456ZM528.637 360.288C529.533 360.288 530.333 360.128 531.037 359.808C531.757 359.488 532.365 359.048 532.861 358.488C533.373 357.912 533.757 357.264 534.013 356.544C534.285 355.808 534.421 355.032 534.421 354.216C534.421 353.336 534.285 352.528 534.013 351.792C533.757 351.056 533.373 350.416 532.861 349.872C532.365 349.328 531.757 348.904 531.037 348.6C530.317 348.296 529.517 348.144 528.637 348.144C527.741 348.144 526.933 348.296 526.213 348.6C525.493 348.904 524.877 349.328 524.365 349.872C523.869 350.416 523.485 351.056 523.213 351.792C522.957 352.528 522.829 353.336 522.829 354.216C522.829 355.032 522.957 355.808 523.213 356.544C523.485 357.264 523.869 357.912 524.365 358.488C524.877 359.048 525.493 359.488 526.213 359.808C526.933 360.128 527.741 360.288 528.637 360.288Z" fill="#FEFBFF"/>
<path id="Union" fill-rule="evenodd" clip-rule="evenodd" d="M94.6663 319.851C94.6663 319.852 94.6666 319.826 94.6775 319.771C94.688 319.717 94.7063 319.646 94.7356 319.559C94.7944 319.385 94.8909 319.165 95.0343 318.917C95.3209 318.421 95.7768 317.841 96.4351 317.301C97.7339 316.236 99.8645 315.292 103.141 315.533C116.101 316.484 123.416 325.411 123.416 332.161V372.168C123.416 372.805 123.269 373.1 123.133 373.241C123.005 373.375 122.719 373.546 122.029 373.546H114.307C113.617 373.546 113.331 373.375 113.203 373.241C113.067 373.1 112.92 372.805 112.92 372.168V335.238C112.92 332.828 111.735 330.421 109.989 328.634C108.239 326.843 105.818 325.566 103.214 325.566H94.6663V319.851ZM103.214 327.566H94.6663V372.168C94.6663 373.163 94.4826 374.108 93.7937 374.763C93.1165 375.407 92.1822 375.546 91.2793 375.546H83.4163C82.6093 375.546 81.7242 375.39 81.0391 374.792C80.3266 374.171 80.0293 373.252 80.0293 372.168V334.819C80.0293 332.957 81.093 330.668 82.6644 328.878C84.2491 327.074 86.5363 325.566 89.1723 325.566H92.6663V319.851C92.6663 319.284 92.918 318.582 93.3025 317.917C93.7065 317.217 94.3179 316.451 95.1668 315.754C96.8824 314.347 99.5259 313.262 103.287 313.538C117.006 314.545 125.416 324.098 125.416 332.161V372.168C125.416 373.069 125.212 373.963 124.576 374.626C123.932 375.297 123.025 375.546 122.029 375.546H114.307C113.311 375.546 112.404 375.297 111.76 374.626C111.124 373.963 110.92 373.069 110.92 372.168V335.238C110.92 333.463 110.027 331.534 108.559 330.032C107.094 328.533 105.162 327.566 103.214 327.566ZM89.1723 327.566H92.6663V372.168C92.6663 372.991 92.4989 373.235 92.4155 373.314C92.3205 373.404 92.0613 373.546 91.2793 373.546H83.4163C82.8191 373.546 82.5107 373.422 82.3533 373.285C82.2235 373.172 82.0293 372.902 82.0293 372.168V334.819C82.0293 333.604 82.7905 331.766 84.1672 330.198C85.5308 328.645 87.3151 327.566 89.1723 327.566ZM164.112 381.129C164.112 381.128 164.112 381.154 164.101 381.209C164.09 381.263 164.072 381.333 164.043 381.42C163.984 381.595 163.887 381.815 163.744 382.063C163.457 382.559 163.002 383.139 162.343 383.679C161.044 384.744 158.914 385.687 155.637 385.447C142.677 384.496 135.362 375.569 135.362 368.819V328.812C135.362 328.175 135.509 327.88 135.645 327.739C135.773 327.605 136.059 327.434 136.749 327.434H144.472C145.161 327.434 145.447 327.605 145.576 327.739C145.711 327.88 145.859 328.175 145.859 328.812V365.741C145.859 368.151 147.043 370.559 148.789 372.346C150.54 374.137 152.961 375.414 155.564 375.414H164.112V381.129ZM155.564 373.414H164.112V328.812C164.112 327.817 164.296 326.872 164.985 326.217C165.662 325.573 166.596 325.434 167.499 325.434H175.362C176.169 325.434 177.054 325.59 177.739 326.187C178.452 326.809 178.749 327.728 178.749 328.812V366.161C178.749 368.023 177.685 370.312 176.114 372.101C174.529 373.906 172.242 375.414 169.606 375.414H166.112V381.129C166.112 381.696 165.86 382.397 165.476 383.063C165.072 383.763 164.46 384.529 163.611 385.226C161.896 386.633 159.252 387.718 155.491 387.442C141.773 386.435 133.362 376.882 133.362 368.819V328.812C133.362 327.911 133.566 327.016 134.202 326.354C134.846 325.683 135.754 325.434 136.749 325.434H144.472C145.467 325.434 146.374 325.683 147.018 326.354C147.655 327.016 147.859 327.911 147.859 328.812V365.741C147.859 367.516 148.751 369.446 150.22 370.948C151.684 372.447 153.616 373.414 155.564 373.414ZM169.606 373.414H166.112V328.812C166.112 327.989 166.279 327.745 166.363 327.666C166.458 327.576 166.717 327.434 167.499 327.434H175.362C175.959 327.434 176.268 327.558 176.425 327.695C176.555 327.808 176.749 328.078 176.749 328.812V366.161C176.749 367.376 175.988 369.214 174.611 370.782C173.247 372.335 171.463 373.414 169.606 373.414Z" fill="#FEFBFF"/>
<circle id="Ellipse 10" cx="581.89" cy="86.4966" r="45.7505" fill="#E71924"/>
<circle id="Ellipse 11" cx="637.648" cy="86.4966" r="45.7505" fill="#F99F19"/>
<path id="Intersect" fill-rule="evenodd" clip-rule="evenodd" d="M609.769 122.594C620.637 114.23 627.641 101.091 627.641 86.3167C627.641 71.5423 620.637 58.4035 609.769 50.0391C598.901 58.4035 591.898 71.5423 591.898 86.3167C591.898 101.091 598.901 114.23 609.769 122.594Z" fill="#F26520"/>
<g id="Group 301">
<rect id="Rectangle 344" x="80.4219" y="156.195" width="97.9347" height="69.3406" rx="6.07624" fill="url(#paint1_linear_223_306)" stroke="#211F21" stroke-width="2.14455"/>
<path id="Vector 9" d="M80.7793 178.713H110.088" stroke="#211F21" stroke-width="2" stroke-linecap="round"/>
<path id="Vector 10" d="M80.7793 200.873H109.446" stroke="#211F21" stroke-width="2" stroke-linecap="round"/>
<path id="Vector 11" d="M149.405 200.873H177.999" stroke="#211F21" stroke-width="2" stroke-linecap="round"/>
<path id="Vector 12" d="M148.976 179.428H177.999" stroke="#211F21" stroke-width="2" stroke-linecap="round"/>
<circle id="Ellipse 12" cx="129.389" cy="166.561" r="2.14455" fill="#211F21"/>
<g id="Vector 13">
<path d="M231.054 205.824C236.326 192.59 236.927 185.119 231.054 171.645C230.431 170.215 231.054 169.024 231.769 168.786C232.484 168.547 233.59 168.786 234.271 170.215C241.189 184.73 240.768 192.87 234.628 207.387C233.913 208.817 232.576 208.998 231.769 208.46C230.825 207.831 230.609 206.941 231.054 205.824Z" fill="#FEFBFF"/>
<path d="M223.548 172.717C222.833 173.075 222.376 174.43 223.191 175.934C228 185.94 227.802 191.662 223.191 202.026C222.687 203.071 222.999 204.226 223.906 204.528C224.978 204.886 225.914 204.125 226.407 203.098C231.702 192.084 231.841 185.756 226.407 174.147C225.906 173.075 224.62 172.181 223.548 172.717Z" fill="#FEFBFF"/>
<path d="M216.4 177.364C215.327 177.721 215.137 178.908 215.685 180.223C218.531 187.063 218.98 190.898 215.685 197.737C215.042 198.929 214.831 200.193 216.042 200.596C217.253 201 218.127 200.363 218.544 199.524C222.767 191.149 221.821 186.454 218.544 178.079C218.264 177.364 217.472 177.006 216.4 177.364Z" fill="#FEFBFF"/>
<path d="M208.894 180.223C207.821 180.938 207.669 182.022 208.536 183.797C210.345 187.564 210.304 189.68 208.536 193.448C207.714 195.11 207.464 197.022 208.894 197.38C210.323 197.737 210.958 197.229 211.753 195.235C213.579 189.987 213.757 187.02 211.753 181.653C211.292 180.261 210.323 179.508 208.894 180.223Z" fill="#FEFBFF"/>
</g>
<path id="Vector 14" d="M145.116 170.85C142.373 161.509 137.252 156.91 129.031 156.91C119.024 156.91 116.195 164.531 110.088 178.356C113.999 187.507 114.04 192.437 110.088 200.874C116.495 219.255 121.241 224.916 129.389 224.821C140.112 224.821 143.164 215.733 149.047 200.874C145.953 192.498 145.623 187.876 148.501 179.5" stroke="#211F21" stroke-width="2" stroke-linecap="round"/>
</g>
</g>
<defs>
<filter id="filter0_i_223_306" x="0.000976562" y="0" width="725" height="461" filterUnits="userSpaceOnUse" color-interpolation-filters="sRGB">
<feFlood flood-opacity="0" result="BackgroundImageFix"/>
<feBlend mode="normal" in="SourceGraphic" in2="BackgroundImageFix" result="shape"/>
<feColorMatrix in="SourceAlpha" type="matrix" values="0 0 0 0 0 0 0 0 0 0 0 0 0 0 0 0 0 0 127 0" result="hardAlpha"/>
<feOffset dx="3" dy="3"/>
<feGaussianBlur stdDeviation="3"/>
<feComposite in2="hardAlpha" operator="arithmetic" k2="-1" k3="1"/>
<feColorMatrix type="matrix" values="0 0 0 0 1 0 0 0 0 1 0 0 0 0 1 0 0 0 0.25 0"/>
<feBlend mode="normal" in2="shape" result="effect1_innerShadow_223_306"/>
</filter>
<linearGradient id="paint0_linear_223_306" x1="610.091" y1="61.83" x2="354.097" y2="526.995" gradientUnits="userSpaceOnUse">
<stop stop-color="#00FD83"/>
<stop offset="0.70003" stop-color="#00BF63"/>
</linearGradient>
<linearGradient id="paint1_linear_223_306" x1="171.001" y1="165" x2="87.001" y2="221" gradientUnits="userSpaceOnUse">
<stop stop-color="#F4F4F4"/>
<stop offset="1" stop-color="#D6D6D6"/>
</linearGradient>
<clipPath id="clip0_223_306">
<rect width="722" height="458" fill="white" transform="translate(0.000976562)"/>
</clipPath>
</defs>
</svg>
